G04 Layer_Physical_Order=1*
G04 Layer_Color=255*
%FSLAX25Y25*%
%MOIN*%
G70*
G01*
G75*
%ADD10R,0.02756X0.03543*%
%ADD11R,0.03543X0.02756*%
%ADD12R,0.06299X0.05512*%
%ADD13R,0.09843X0.01969*%
%ADD14R,0.09843X0.07874*%
%ADD15R,0.02500X0.05000*%
%ADD16R,0.01370X0.05500*%
G04:AMPARAMS|DCode=17|XSize=39.37mil|YSize=39.37mil|CornerRadius=19.68mil|HoleSize=0mil|Usage=FLASHONLY|Rotation=0.000|XOffset=0mil|YOffset=0mil|HoleType=Round|Shape=RoundedRectangle|*
%AMROUNDEDRECTD17*
21,1,0.03937,0.00000,0,0,0.0*
21,1,0.00000,0.03937,0,0,0.0*
1,1,0.03937,0.00000,0.00000*
1,1,0.03937,0.00000,0.00000*
1,1,0.03937,0.00000,0.00000*
1,1,0.03937,0.00000,0.00000*
%
%ADD17ROUNDEDRECTD17*%
%ADD18C,0.01000*%
%ADD19C,0.00800*%
%ADD20C,0.03543*%
%ADD21C,0.07400*%
%ADD22C,0.04000*%
G36*
X203777Y101224D02*
X105151D01*
X104981Y101724D01*
X105375Y102025D01*
X105818Y102604D01*
X106097Y103277D01*
X106192Y104000D01*
X106097Y104723D01*
X105818Y105396D01*
X105375Y105974D01*
X104796Y106418D01*
X104123Y106697D01*
X103400Y106792D01*
X102677Y106697D01*
X102004Y106418D01*
X101724Y106203D01*
X101224Y106450D01*
Y188777D01*
X203777D01*
Y101224D01*
D02*
G37*
%LPC*%
G36*
X119500Y141941D02*
X117228D01*
Y140063D01*
X119500D01*
Y141941D01*
D02*
G37*
G36*
Y144819D02*
X117228D01*
Y142941D01*
X119500D01*
Y144819D01*
D02*
G37*
G36*
X109500Y143244D02*
X105851D01*
Y139988D01*
X109500D01*
Y143244D01*
D02*
G37*
G36*
X114149D02*
X110500D01*
Y139988D01*
X114149D01*
Y143244D01*
D02*
G37*
G36*
X181079Y153284D02*
X175657D01*
Y151799D01*
X181079D01*
Y153284D01*
D02*
G37*
G36*
X132984Y163144D02*
X131799D01*
Y162944D01*
X126881D01*
Y155844D01*
X131799D01*
Y155644D01*
X132984D01*
Y159394D01*
Y163144D01*
D02*
G37*
G36*
X185000Y156255D02*
X184329Y156166D01*
X183703Y155907D01*
X183166Y155495D01*
X182754Y154958D01*
X182495Y154332D01*
X182406Y153661D01*
X182495Y152990D01*
X182754Y152364D01*
X183166Y151827D01*
X183703Y151415D01*
X184329Y151156D01*
X185000Y151067D01*
X185671Y151156D01*
X186297Y151415D01*
X186834Y151827D01*
X187246Y152364D01*
X187505Y152990D01*
X187594Y153661D01*
X187505Y154332D01*
X187246Y154958D01*
X186834Y155495D01*
X186297Y155907D01*
X185671Y156166D01*
X185000Y156255D01*
D02*
G37*
G36*
X174657Y153284D02*
X169236D01*
Y151799D01*
X174657D01*
Y153284D01*
D02*
G37*
G36*
X160000Y114539D02*
X158825Y114384D01*
X157731Y113931D01*
X156791Y113209D01*
X156069Y112269D01*
X155616Y111175D01*
X155461Y110000D01*
X155616Y108825D01*
X156069Y107731D01*
X156791Y106791D01*
X157731Y106069D01*
X158825Y105616D01*
X160000Y105461D01*
X161175Y105616D01*
X162269Y106069D01*
X163209Y106791D01*
X163931Y107731D01*
X164384Y108825D01*
X164539Y110000D01*
X164384Y111175D01*
X163931Y112269D01*
X163209Y113209D01*
X162269Y113931D01*
X161175Y114384D01*
X160000Y114539D01*
D02*
G37*
G36*
X190000D02*
X188825Y114384D01*
X187731Y113931D01*
X186791Y113209D01*
X186069Y112269D01*
X185616Y111175D01*
X185461Y110000D01*
X185616Y108825D01*
X186069Y107731D01*
X186791Y106791D01*
X187731Y106069D01*
X188825Y105616D01*
X190000Y105461D01*
X191175Y105616D01*
X192269Y106069D01*
X193209Y106791D01*
X193931Y107731D01*
X194384Y108825D01*
X194539Y110000D01*
X194384Y111175D01*
X193931Y112269D01*
X193209Y113209D01*
X192269Y113931D01*
X191175Y114384D01*
X190000Y114539D01*
D02*
G37*
G36*
X130000D02*
X128825Y114384D01*
X127731Y113931D01*
X126791Y113209D01*
X126069Y112269D01*
X125616Y111175D01*
X125461Y110000D01*
X125616Y108825D01*
X126069Y107731D01*
X126791Y106791D01*
X127731Y106069D01*
X128825Y105616D01*
X130000Y105461D01*
X131175Y105616D01*
X132269Y106069D01*
X133209Y106791D01*
X133931Y107731D01*
X134384Y108825D01*
X134539Y110000D01*
X134384Y111175D01*
X133931Y112269D01*
X133209Y113209D01*
X132269Y113931D01*
X131175Y114384D01*
X130000Y114539D01*
D02*
G37*
G36*
X150000D02*
X148825Y114384D01*
X147731Y113931D01*
X146791Y113209D01*
X146069Y112269D01*
X145616Y111175D01*
X145461Y110000D01*
X145616Y108825D01*
X146069Y107731D01*
X146791Y106791D01*
X147731Y106069D01*
X148825Y105616D01*
X150000Y105461D01*
X151175Y105616D01*
X152269Y106069D01*
X153209Y106791D01*
X153931Y107731D01*
X154384Y108825D01*
X154539Y110000D01*
X154384Y111175D01*
X153931Y112269D01*
X153209Y113209D01*
X152269Y113931D01*
X151175Y114384D01*
X150000Y114539D01*
D02*
G37*
G36*
X109500Y138988D02*
X105851D01*
Y135732D01*
X109500D01*
Y138988D01*
D02*
G37*
G36*
X114149D02*
X110500D01*
Y135732D01*
X114149D01*
Y138988D01*
D02*
G37*
G36*
X202533Y132020D02*
X191089D01*
Y122546D01*
X202533D01*
Y132020D01*
D02*
G37*
G36*
X185000Y138933D02*
X184329Y138844D01*
X183703Y138585D01*
X183166Y138173D01*
X182754Y137636D01*
X182495Y137010D01*
X182406Y136339D01*
X182495Y135668D01*
X182754Y135042D01*
X183166Y134505D01*
X183703Y134093D01*
X184329Y133834D01*
X185000Y133745D01*
X185671Y133834D01*
X186297Y134093D01*
X186834Y134505D01*
X187246Y135042D01*
X187505Y135668D01*
X187594Y136339D01*
X187505Y137010D01*
X187246Y137636D01*
X186834Y138173D01*
X186297Y138585D01*
X185671Y138844D01*
X185000Y138933D01*
D02*
G37*
G36*
X190000Y184539D02*
X188825Y184384D01*
X187731Y183931D01*
X186791Y183209D01*
X186069Y182269D01*
X185616Y181175D01*
X185461Y180000D01*
X185616Y178825D01*
X186069Y177731D01*
X186791Y176791D01*
X187731Y176069D01*
X188674Y175678D01*
Y149049D01*
X181340Y141715D01*
X180878Y141906D01*
Y146365D01*
Y149314D01*
X181079D01*
Y150799D01*
X175157D01*
X169236D01*
Y149314D01*
X169436D01*
Y148092D01*
X168974Y147901D01*
X162960Y153915D01*
Y155844D01*
X163119D01*
Y162944D01*
X157842D01*
Y167429D01*
X159619D01*
Y171765D01*
X160181D01*
Y170500D01*
X164937D01*
Y171765D01*
X173090D01*
X173597Y171865D01*
X174027Y172153D01*
X175362Y173488D01*
X177881Y176007D01*
X178825Y175616D01*
X180000Y175461D01*
X181175Y175616D01*
X182269Y176069D01*
X183209Y176791D01*
X183931Y177731D01*
X184384Y178825D01*
X184539Y180000D01*
X184384Y181175D01*
X183931Y182269D01*
X183209Y183209D01*
X182269Y183931D01*
X181175Y184384D01*
X180000Y184539D01*
X178825Y184384D01*
X177731Y183931D01*
X176791Y183209D01*
X176069Y182269D01*
X175616Y181175D01*
X175461Y180000D01*
X175616Y178825D01*
X176007Y177881D01*
X172541Y174416D01*
X167155D01*
X166957Y174875D01*
X167990Y175962D01*
X168825Y175616D01*
X170000Y175461D01*
X171175Y175616D01*
X172269Y176069D01*
X173209Y176791D01*
X173931Y177731D01*
X174384Y178825D01*
X174539Y180000D01*
X174384Y181175D01*
X173931Y182269D01*
X173209Y183209D01*
X172269Y183931D01*
X171175Y184384D01*
X170000Y184539D01*
X168825Y184384D01*
X167731Y183931D01*
X166791Y183209D01*
X166069Y182269D01*
X165616Y181175D01*
X165461Y180000D01*
X165616Y178825D01*
X166053Y177771D01*
X164632Y176277D01*
X163322Y176280D01*
X163162Y176754D01*
X163209Y176791D01*
X163931Y177731D01*
X164384Y178825D01*
X164539Y180000D01*
X164384Y181175D01*
X163931Y182269D01*
X163209Y183209D01*
X162269Y183931D01*
X161175Y184384D01*
X160000Y184539D01*
X158825Y184384D01*
X157731Y183931D01*
X156791Y183209D01*
X156069Y182269D01*
X155616Y181175D01*
X155461Y180000D01*
X155616Y178825D01*
X155714Y178588D01*
X146951Y169825D01*
X144500D01*
X143993Y169725D01*
X143563Y169437D01*
X140224Y166098D01*
X139936Y165668D01*
X139836Y165161D01*
Y162944D01*
X137728D01*
Y163144D01*
X136543D01*
Y159394D01*
Y155644D01*
X137728D01*
Y155844D01*
X144595D01*
Y155644D01*
X145780D01*
Y159394D01*
Y163144D01*
X145045D01*
Y164171D01*
X146053Y165178D01*
X148618Y165195D01*
X148858Y165244D01*
X149099Y165288D01*
X149111Y165296D01*
X149125Y165299D01*
X149328Y165436D01*
X149533Y165569D01*
X154803Y170686D01*
X155263Y170492D01*
Y169380D01*
X155191Y169016D01*
Y163144D01*
X154457D01*
Y159394D01*
Y155644D01*
X155642D01*
Y155844D01*
X157749D01*
Y150925D01*
X157850Y150418D01*
X158138Y149988D01*
X158838Y149287D01*
X158647Y148826D01*
X152738D01*
X152441Y148884D01*
X150164D01*
Y155844D01*
X152272D01*
Y155644D01*
X153457D01*
Y159394D01*
Y163144D01*
X152272D01*
Y162944D01*
X147965D01*
Y163144D01*
X146780D01*
Y159394D01*
Y155644D01*
X147513D01*
Y148884D01*
X122572D01*
Y149737D01*
X117429D01*
Y149599D01*
X116967Y149408D01*
X114925Y151449D01*
X114495Y151737D01*
X113988Y151838D01*
X113950D01*
Y154068D01*
X106051D01*
Y146956D01*
X113950D01*
Y148023D01*
X114411Y148214D01*
X116004Y146622D01*
X116434Y146334D01*
X116941Y146233D01*
X117429D01*
Y145381D01*
X122572D01*
Y146233D01*
X125206D01*
X125397Y145772D01*
X123563Y143937D01*
X123275Y143507D01*
X123272Y143488D01*
X122772Y143537D01*
Y144819D01*
X120500D01*
Y142441D01*
Y140063D01*
X122675D01*
X122772Y140063D01*
X123175Y139829D01*
Y138049D01*
X119951Y134826D01*
X110000D01*
X109493Y134725D01*
X109063Y134437D01*
X107063Y132437D01*
X107053Y132423D01*
X107039Y132413D01*
X106910Y132208D01*
X106775Y132007D01*
X106772Y131990D01*
X106763Y131975D01*
X106731Y131790D01*
X106028D01*
Y125190D01*
X110114D01*
X110161Y114680D01*
X110000Y114539D01*
X108825Y114384D01*
X107731Y113931D01*
X106791Y113209D01*
X106069Y112269D01*
X105616Y111175D01*
X105461Y110000D01*
X105616Y108825D01*
X106069Y107731D01*
X106791Y106791D01*
X107731Y106069D01*
X108825Y105616D01*
X110000Y105461D01*
X111175Y105616D01*
X112269Y106069D01*
X113209Y106791D01*
X113931Y107731D01*
X114384Y108825D01*
X114539Y110000D01*
X114384Y111175D01*
X113931Y112269D01*
X113209Y113209D01*
X112817Y113511D01*
X112767Y124836D01*
X113119Y125190D01*
X113475D01*
Y127167D01*
X121001Y127174D01*
X121256Y127225D01*
X121507Y127275D01*
X121508Y127276D01*
X121509Y127276D01*
X121726Y127421D01*
X121937Y127563D01*
X126419Y132045D01*
X126881Y131853D01*
Y127056D01*
X127041D01*
Y118915D01*
X122119Y113993D01*
X121175Y114384D01*
X120000Y114539D01*
X118825Y114384D01*
X117731Y113931D01*
X116791Y113209D01*
X116069Y112269D01*
X115616Y111175D01*
X115461Y110000D01*
X115616Y108825D01*
X116069Y107731D01*
X116791Y106791D01*
X117731Y106069D01*
X118825Y105616D01*
X120000Y105461D01*
X121175Y105616D01*
X122269Y106069D01*
X123209Y106791D01*
X123931Y107731D01*
X124384Y108825D01*
X124539Y110000D01*
X124384Y111175D01*
X123993Y112119D01*
X129303Y117429D01*
X129591Y117859D01*
X129692Y118366D01*
Y127056D01*
X132159D01*
Y125593D01*
X130803Y124237D01*
X130515Y123807D01*
X130414Y123300D01*
Y118260D01*
X130515Y117753D01*
X130803Y117323D01*
X136007Y112119D01*
X135616Y111175D01*
X135461Y110000D01*
X135616Y108825D01*
X136069Y107731D01*
X136791Y106791D01*
X137731Y106069D01*
X138825Y105616D01*
X140000Y105461D01*
X141175Y105616D01*
X142269Y106069D01*
X143209Y106791D01*
X143931Y107731D01*
X144384Y108825D01*
X144539Y110000D01*
X144384Y111175D01*
X143931Y112269D01*
X143209Y113209D01*
X142269Y113931D01*
X141175Y114384D01*
X140000Y114539D01*
X138825Y114384D01*
X137881Y113993D01*
X133065Y118809D01*
Y122751D01*
X134421Y124107D01*
X134709Y124537D01*
X134810Y125044D01*
Y127056D01*
X142035D01*
Y126856D01*
X143220D01*
Y130606D01*
X144220D01*
Y126856D01*
X145405D01*
Y127056D01*
X147513D01*
Y126161D01*
X147614Y125654D01*
X147902Y125224D01*
X151063Y122063D01*
X151493Y121775D01*
X152000Y121675D01*
X156451D01*
X166007Y112119D01*
X165616Y111175D01*
X165461Y110000D01*
X165616Y108825D01*
X166069Y107731D01*
X166791Y106791D01*
X167731Y106069D01*
X168825Y105616D01*
X170000Y105461D01*
X171175Y105616D01*
X172269Y106069D01*
X173209Y106791D01*
X173931Y107731D01*
X174384Y108825D01*
X174539Y110000D01*
X174384Y111175D01*
X173931Y112269D01*
X173209Y113209D01*
X172269Y113931D01*
X171175Y114384D01*
X170000Y114539D01*
X168825Y114384D01*
X167881Y113993D01*
X158662Y123213D01*
X158853Y123674D01*
X164451D01*
X176007Y112119D01*
X175616Y111175D01*
X175461Y110000D01*
X175616Y108825D01*
X176069Y107731D01*
X176791Y106791D01*
X177731Y106069D01*
X178825Y105616D01*
X180000Y105461D01*
X181175Y105616D01*
X182269Y106069D01*
X183209Y106791D01*
X183931Y107731D01*
X184384Y108825D01*
X184539Y110000D01*
X184384Y111175D01*
X183931Y112269D01*
X183209Y113209D01*
X182269Y113931D01*
X181175Y114384D01*
X180000Y114539D01*
X178825Y114384D01*
X177881Y113993D01*
X169828Y122046D01*
X170036Y122546D01*
X180878D01*
Y132020D01*
X169825D01*
X169640Y132020D01*
X169374Y132495D01*
X169446Y132588D01*
X169728Y133269D01*
X169824Y134000D01*
X169728Y134731D01*
X169446Y135412D01*
X168997Y135997D01*
X168412Y136446D01*
X168325Y136482D01*
Y137000D01*
X168761Y137375D01*
X169436D01*
Y136916D01*
X180878D01*
Y137590D01*
X181138Y137764D01*
X190937Y147563D01*
X191225Y147993D01*
X191325Y148500D01*
Y157980D01*
X202533D01*
Y167454D01*
X191325D01*
Y175678D01*
X192269Y176069D01*
X193209Y176791D01*
X193931Y177731D01*
X194384Y178825D01*
X194539Y180000D01*
X194384Y181175D01*
X193931Y182269D01*
X193209Y183209D01*
X192269Y183931D01*
X191175Y184384D01*
X190000Y184539D01*
D02*
G37*
G36*
X109500Y184675D02*
X108773Y184579D01*
X107630Y184105D01*
X106648Y183352D01*
X105895Y182370D01*
X105421Y181227D01*
X105325Y180500D01*
X109500D01*
Y184675D01*
D02*
G37*
G36*
X140000Y184539D02*
X138825Y184384D01*
X137731Y183931D01*
X136791Y183209D01*
X136069Y182269D01*
X135616Y181175D01*
X135461Y180000D01*
X135616Y178825D01*
X136069Y177731D01*
X136791Y176791D01*
X137731Y176069D01*
X138825Y175616D01*
X140000Y175461D01*
X141175Y175616D01*
X142269Y176069D01*
X143209Y176791D01*
X143931Y177731D01*
X144384Y178825D01*
X144539Y180000D01*
X144384Y181175D01*
X143931Y182269D01*
X143209Y183209D01*
X142269Y183931D01*
X141175Y184384D01*
X140000Y184539D01*
D02*
G37*
G36*
X150000D02*
X148825Y184384D01*
X147731Y183931D01*
X146791Y183209D01*
X146069Y182269D01*
X145616Y181175D01*
X145461Y180000D01*
X145616Y178825D01*
X146069Y177731D01*
X146791Y176791D01*
X147731Y176069D01*
X148825Y175616D01*
X150000Y175461D01*
X151175Y175616D01*
X152269Y176069D01*
X153209Y176791D01*
X153931Y177731D01*
X154384Y178825D01*
X154539Y180000D01*
X154384Y181175D01*
X153931Y182269D01*
X153209Y183209D01*
X152269Y183931D01*
X151175Y184384D01*
X150000Y184539D01*
D02*
G37*
G36*
X120500Y184675D02*
Y180500D01*
X124675D01*
X124579Y181227D01*
X124105Y182370D01*
X123352Y183352D01*
X122370Y184105D01*
X121227Y184579D01*
X120500Y184675D01*
D02*
G37*
G36*
X199800Y186792D02*
X199077Y186697D01*
X198404Y186418D01*
X197826Y185975D01*
X197382Y185396D01*
X197103Y184723D01*
X197008Y184000D01*
X197103Y183277D01*
X197382Y182604D01*
X197826Y182026D01*
X198404Y181582D01*
X199077Y181303D01*
X199800Y181208D01*
X200523Y181303D01*
X201196Y181582D01*
X201775Y182026D01*
X202218Y182604D01*
X202497Y183277D01*
X202592Y184000D01*
X202497Y184723D01*
X202218Y185396D01*
X201775Y185975D01*
X201196Y186418D01*
X200523Y186697D01*
X199800Y186792D01*
D02*
G37*
G36*
X119500Y184675D02*
X118773Y184579D01*
X117630Y184105D01*
X116648Y183352D01*
X115895Y182370D01*
X115421Y181227D01*
X115325Y180500D01*
X119500D01*
Y184675D01*
D02*
G37*
G36*
X110500D02*
Y180500D01*
X114675D01*
X114579Y181227D01*
X114105Y182370D01*
X113352Y183352D01*
X112370Y184105D01*
X111227Y184579D01*
X110500Y184675D01*
D02*
G37*
G36*
X130000Y184539D02*
X128825Y184384D01*
X127731Y183931D01*
X126791Y183209D01*
X126069Y182269D01*
X125616Y181175D01*
X125461Y180000D01*
X125616Y178825D01*
X126069Y177731D01*
X126791Y176791D01*
X127731Y176069D01*
X128825Y175616D01*
X130000Y175461D01*
X131175Y175616D01*
X132269Y176069D01*
X133209Y176791D01*
X133931Y177731D01*
X134384Y178825D01*
X134539Y180000D01*
X134384Y181175D01*
X133931Y182269D01*
X133209Y183209D01*
X132269Y183931D01*
X131175Y184384D01*
X130000Y184539D01*
D02*
G37*
G36*
X162059Y169500D02*
X160181D01*
Y167228D01*
X162059D01*
Y169500D01*
D02*
G37*
G36*
X164937D02*
X163059D01*
Y167228D01*
X164937D01*
Y169500D01*
D02*
G37*
G36*
X135543Y163144D02*
X133984D01*
Y159394D01*
Y155644D01*
X135543D01*
Y159394D01*
Y163144D01*
D02*
G37*
G36*
X180878Y167454D02*
X169436D01*
Y157980D01*
X180878D01*
Y167454D01*
D02*
G37*
G36*
X114675Y179500D02*
X110500D01*
Y175325D01*
X111227Y175421D01*
X112370Y175895D01*
X113352Y176648D01*
X114105Y177630D01*
X114579Y178773D01*
X114675Y179500D01*
D02*
G37*
G36*
X124675D02*
X120500D01*
Y175325D01*
X121227Y175421D01*
X122370Y175895D01*
X123352Y176648D01*
X124105Y177630D01*
X124579Y178773D01*
X124675Y179500D01*
D02*
G37*
G36*
X109500D02*
X105325D01*
X105421Y178773D01*
X105895Y177630D01*
X106648Y176648D01*
X107630Y175895D01*
X108773Y175421D01*
X109500Y175325D01*
Y179500D01*
D02*
G37*
G36*
X119500D02*
X115325D01*
X115421Y178773D01*
X115895Y177630D01*
X116648Y176648D01*
X117630Y175895D01*
X118773Y175421D01*
X119500Y175325D01*
Y179500D01*
D02*
G37*
%LPD*%
D10*
X157441Y170000D02*
D03*
X162559D02*
D03*
D11*
X120000Y147559D02*
D03*
Y142441D02*
D03*
D12*
X110000Y139488D02*
D03*
Y150512D02*
D03*
D13*
X175157Y145000D02*
D03*
Y141850D02*
D03*
Y151299D02*
D03*
Y148150D02*
D03*
Y138701D02*
D03*
D14*
X196811Y162717D02*
D03*
Y127283D02*
D03*
X175157Y162717D02*
D03*
Y127283D02*
D03*
D15*
X108078Y128490D02*
D03*
X111425D02*
D03*
D16*
X128366Y159394D02*
D03*
X130925D02*
D03*
X133484D02*
D03*
X136043D02*
D03*
X138602D02*
D03*
X141161D02*
D03*
X143720D02*
D03*
X148839D02*
D03*
X146280D02*
D03*
X151398D02*
D03*
X153957D02*
D03*
X156516D02*
D03*
X159075D02*
D03*
X161634D02*
D03*
X128366Y130606D02*
D03*
X130925D02*
D03*
X133484D02*
D03*
X136043D02*
D03*
X138602D02*
D03*
X141161D02*
D03*
X143720D02*
D03*
X146280D02*
D03*
X148839D02*
D03*
X151398D02*
D03*
X153957D02*
D03*
X156516D02*
D03*
X159075D02*
D03*
X161634D02*
D03*
D17*
X103400Y104000D02*
D03*
X199800Y184000D02*
D03*
D18*
X144500Y168500D02*
X147500D01*
X148610Y166520D02*
X157311Y174970D01*
X156516Y169016D02*
X157500Y170000D01*
X173090Y173090D02*
X173500Y173500D01*
X173090Y173090D02*
X174425Y174425D01*
X133500Y159000D02*
X133894Y159394D01*
X148941Y147559D02*
X149000Y147500D01*
X148839Y147661D02*
X148941Y147559D01*
X149000D01*
X120000D02*
X148941D01*
X133484Y159016D02*
X133500Y159000D01*
X133484Y159016D02*
Y159394D01*
X133894D02*
X136043D01*
X168701Y151299D02*
X175157D01*
X165000Y155000D02*
X168701Y151299D01*
X153957Y154043D02*
Y159394D01*
Y154043D02*
X155500Y152500D01*
X168150Y141850D02*
X175157D01*
X159075Y150925D02*
Y159394D01*
Y150925D02*
X168150Y141850D01*
X170000Y145000D02*
X175157D01*
X161634Y153366D02*
Y159394D01*
Y153366D02*
X170000Y145000D01*
X149000Y147559D02*
X152441D01*
X149000Y147500D02*
Y147559D01*
X148839Y147661D02*
Y159394D01*
X110000Y150512D02*
X113988D01*
X116941Y147559D02*
X120000D01*
X113988Y150512D02*
X116941Y147559D01*
X168299Y138701D02*
X175157D01*
X159500Y147500D02*
X168299Y138701D01*
X152441Y147559D02*
X152500Y147500D01*
X159500D01*
X175157Y138701D02*
X180201D01*
X190000Y148500D01*
Y180000D01*
X128366Y118366D02*
Y130606D01*
X120000Y110000D02*
X128366Y118366D01*
X138602Y130606D02*
Y138398D01*
X137000Y140000D02*
X138602Y138398D01*
X131740Y118260D02*
X140000Y110000D01*
X131740Y118260D02*
Y123300D01*
X133484Y125044D01*
Y130606D01*
X153957D02*
Y134043D01*
X151000Y137000D02*
X153957Y134043D01*
X145000Y137000D02*
X151000D01*
X130925Y130606D02*
Y139075D01*
X130000Y140000D02*
X130925Y139075D01*
X148839Y126161D02*
Y130606D01*
Y126161D02*
X152000Y123000D01*
X157000D01*
X170000Y110000D01*
X151398Y126602D02*
Y130606D01*
Y126602D02*
X153000Y125000D01*
X165000D01*
X180000Y110000D01*
X142500Y142000D02*
X144000D01*
X141161Y130606D02*
Y140661D01*
X142500Y142000D01*
X141161Y159394D02*
Y165161D01*
X144500Y168500D01*
X159000Y180000D02*
X160000D01*
X147500Y168500D02*
X159000Y180000D01*
X143720Y159394D02*
Y164720D01*
X145500Y166500D01*
X148610Y166520D01*
X157311Y174970D02*
X165200Y174950D01*
X170000Y180000D01*
X159075Y130606D02*
Y137925D01*
X155000Y142000D02*
X159075Y137925D01*
X161634Y130606D02*
Y135634D01*
X162500Y136500D01*
X156516Y130606D02*
Y135484D01*
X150000Y142000D02*
X156516Y135484D01*
X108000Y131500D02*
X108078Y128490D01*
X108000Y131500D02*
X110000Y133500D01*
X120500D01*
X124500Y137500D01*
Y143000D01*
X127000Y145500D01*
X158500D01*
X167000Y137000D01*
Y134000D02*
Y137000D01*
X157441Y170000D02*
X157500D01*
X156516Y159394D02*
Y169016D01*
X157441Y170000D02*
Y171941D01*
X174425Y174425D02*
X180000Y180000D01*
X157441Y171941D02*
X158590Y173090D01*
X173090D01*
X136043Y130606D02*
Y134457D01*
X133500Y137000D02*
X136043Y134457D01*
X111425Y128490D02*
X121000Y128500D01*
X133500Y137000D02*
Y141500D01*
X131500Y143500D02*
X133500Y141500D01*
X128000Y143500D02*
X131500D01*
X126500Y142000D02*
X128000Y143500D01*
X126500Y134000D02*
Y142000D01*
X121000Y128500D02*
X126500Y134000D01*
X111425Y128490D02*
X111500Y111500D01*
X110000Y110000D02*
X111500Y111500D01*
D19*
X100000Y190000D02*
X205000D01*
Y100000D02*
Y190000D01*
X100000Y100000D02*
X205000D01*
X100000D02*
Y190000D01*
D20*
X185000Y136339D02*
D03*
Y153661D02*
D03*
D21*
X190000Y180000D02*
D03*
X180000D02*
D03*
X170000D02*
D03*
X160000D02*
D03*
X150000D02*
D03*
X140000D02*
D03*
X130000D02*
D03*
X120000D02*
D03*
X110000D02*
D03*
Y110000D02*
D03*
X120000D02*
D03*
X130000D02*
D03*
X140000D02*
D03*
X150000D02*
D03*
X160000D02*
D03*
X170000D02*
D03*
X180000D02*
D03*
X190000D02*
D03*
D22*
X155500Y152500D02*
D03*
X135120Y120710D02*
D03*
X183070Y170700D02*
D03*
X137000Y140000D02*
D03*
X145000Y137000D02*
D03*
X130000Y140000D02*
D03*
X144000Y142000D02*
D03*
X155000D02*
D03*
X162500Y136500D02*
D03*
X150000Y142000D02*
D03*
X167000Y134000D02*
D03*
M02*
