G04 Layer_Color=32768*
%FSLAX25Y25*%
%MOIN*%
G70*
G01*
G75*
%ADD18C,0.01000*%
%ADD19C,0.00800*%
%ADD37C,0.00714*%
%ADD38C,0.00100*%
G36*
X153580Y142670D02*
X153580Y142452D01*
X153500Y142022D01*
X153344Y141615D01*
X153116Y141242D01*
X152970Y141080D01*
X152959Y141068D01*
X152935Y141044D01*
X152910Y141021D01*
X152884Y141000D01*
X152870Y140990D01*
X152745Y140900D01*
X152470Y140757D01*
X152178Y140655D01*
X151874Y140597D01*
X151720Y140590D01*
X151573Y140583D01*
X151278Y140589D01*
X150985Y140614D01*
X150694Y140658D01*
X150550Y140690D01*
Y140690D01*
X150524Y140696D01*
X150472Y140712D01*
X150422Y140732D01*
X150373Y140756D01*
X150350Y140770D01*
X150206Y140857D01*
X149938Y141062D01*
X149693Y141294D01*
X149475Y141551D01*
X149380Y141690D01*
X149370D01*
Y140750D01*
X147790D01*
Y146900D01*
X149450D01*
Y143630D01*
X149452Y143508D01*
X149467Y143263D01*
X149497Y143020D01*
X149542Y142779D01*
X149570Y142660D01*
X149606Y142544D01*
X149718Y142330D01*
X149875Y142146D01*
X150071Y142003D01*
X150180Y141950D01*
X150319Y141900D01*
X150608Y141843D01*
X150903Y141845D01*
X151192Y141907D01*
X151330Y141960D01*
X151330Y141960D01*
X151394Y141991D01*
X151514Y142068D01*
X151620Y142162D01*
X151711Y142271D01*
X151750Y142330D01*
X151792Y142405D01*
X151862Y142561D01*
X151912Y142726D01*
X151943Y142894D01*
X151950Y142980D01*
X151950D01*
Y146920D01*
X153580D01*
X153580Y142670D01*
D02*
G37*
G36*
X186461Y147061D02*
X186550Y147060D01*
Y147060D01*
X186763Y147056D01*
X187184Y146991D01*
X187592Y146870D01*
X187980Y146694D01*
X188160Y146580D01*
X188235Y146532D01*
X188371Y146416D01*
X188488Y146282D01*
X188584Y146131D01*
X188620Y146050D01*
X188689Y145896D01*
X188779Y145570D01*
X188817Y145234D01*
X188803Y144896D01*
X188770Y144730D01*
X188755Y144656D01*
X188703Y144513D01*
X188629Y144381D01*
X188535Y144262D01*
X188480Y144210D01*
X188480D01*
X188386Y144123D01*
X188180Y143972D01*
X187958Y143845D01*
X187723Y143746D01*
X187600Y143710D01*
X187424Y143658D01*
X187068Y143564D01*
X186711Y143479D01*
X186351Y143403D01*
X186170Y143370D01*
X186052Y143346D01*
X185819Y143285D01*
X185590Y143207D01*
X185368Y143113D01*
X185260Y143060D01*
X185169Y143003D01*
X185018Y142851D01*
X184922Y142659D01*
X184890Y142447D01*
X184900Y142340D01*
X184914Y142277D01*
X184959Y142157D01*
X185025Y142047D01*
X185111Y141951D01*
X185160Y141910D01*
X185236Y141857D01*
X185399Y141769D01*
X185574Y141708D01*
X185757Y141675D01*
X185850Y141670D01*
X185916Y141669D01*
X186049Y141668D01*
X186181D01*
X186314Y141669D01*
X186380Y141670D01*
X186409Y141671D01*
X186467Y141675D01*
X186525Y141683D01*
X186582Y141693D01*
X186610Y141700D01*
X186610Y141700D01*
X186703Y141727D01*
X186880Y141804D01*
X187043Y141908D01*
X187187Y142037D01*
X187250Y142110D01*
X187295Y142172D01*
X187367Y142306D01*
X187413Y142452D01*
X187431Y142604D01*
X187430Y142680D01*
Y142680D01*
Y142700D01*
X188950D01*
X188940Y142560D01*
X188938Y142531D01*
X188931Y142473D01*
X188921Y142415D01*
X188908Y142358D01*
X188900Y142330D01*
X188882Y142266D01*
X188843Y142140D01*
X188800Y142015D01*
X188754Y141891D01*
X188730Y141830D01*
Y141830D01*
X188693Y141738D01*
X188593Y141566D01*
X188468Y141411D01*
X188322Y141276D01*
X188240Y141220D01*
X188182Y141181D01*
X188066Y141104D01*
X187949Y141029D01*
X187830Y140956D01*
X187770Y140920D01*
Y140920D01*
X187690Y140872D01*
X187521Y140794D01*
X187344Y140733D01*
X187163Y140691D01*
X187070Y140680D01*
X186944Y140665D01*
X186692Y140640D01*
X186440Y140623D01*
X186187Y140612D01*
X186060Y140610D01*
X185929Y140608D01*
X185668Y140617D01*
X185407Y140640D01*
X185148Y140675D01*
X185020Y140700D01*
X185020Y140700D01*
X184818Y140738D01*
X184434Y140884D01*
X184081Y141094D01*
X183770Y141361D01*
X183640Y141520D01*
X183576Y141598D01*
X183472Y141770D01*
X183393Y141955D01*
X183342Y142150D01*
X183330Y142250D01*
X183330Y142250D01*
X183324Y142301D01*
X183314Y142403D01*
X183307Y142506D01*
X183301Y142609D01*
X183300Y142660D01*
X183297Y142764D01*
X183316Y142973D01*
X183359Y143177D01*
X183425Y143376D01*
X183470Y143470D01*
X183490Y143513D01*
X183540Y143594D01*
X183598Y143670D01*
X183664Y143739D01*
X183700Y143770D01*
X183764Y143825D01*
X183901Y143925D01*
X184044Y144016D01*
X184193Y144096D01*
X184270Y144130D01*
X184270Y144130D01*
X184429Y144201D01*
X184755Y144321D01*
X185089Y144419D01*
X185428Y144494D01*
X185600Y144520D01*
X185701Y144536D01*
X185902Y144571D01*
X186102Y144611D01*
X186301Y144656D01*
X186400Y144680D01*
X186478Y144702D01*
X186630Y144757D01*
X186776Y144827D01*
X186915Y144912D01*
X186980Y144960D01*
X187014Y144988D01*
X187074Y145051D01*
X187125Y145122D01*
X187165Y145199D01*
X187180Y145240D01*
X187196Y145299D01*
X187208Y145421D01*
X187193Y145542D01*
X187151Y145657D01*
X187120Y145710D01*
X187098Y145742D01*
X187047Y145800D01*
X186989Y145850D01*
X186924Y145892D01*
X186890Y145910D01*
X186890Y145910D01*
X186847Y145929D01*
X186759Y145962D01*
X186669Y145987D01*
X186577Y146004D01*
X186530Y146010D01*
X186445Y146018D01*
X186275Y146027D01*
X186105D01*
X185935Y146018D01*
X185850Y146010D01*
X185773Y145999D01*
X185622Y145962D01*
X185478Y145904D01*
X185343Y145826D01*
X185280Y145780D01*
X185234Y145741D01*
X185152Y145654D01*
X185083Y145555D01*
X185030Y145447D01*
X185010Y145390D01*
X185010Y145390D01*
X185003Y145364D01*
X184991Y145312D01*
X184983Y145260D01*
X184980Y145207D01*
X184980Y145180D01*
X183450D01*
X183480Y145460D01*
X183502Y145474D01*
X183480Y145490D01*
X183560Y145710D01*
X183574Y145750D01*
X183607Y145829D01*
X183642Y145906D01*
X183680Y145983D01*
X183700Y146020D01*
X183725Y146066D01*
X183781Y146153D01*
X183844Y146236D01*
X183913Y146314D01*
X183950Y146350D01*
X184036Y146434D01*
X184226Y146584D01*
X184430Y146712D01*
X184647Y146819D01*
X184760Y146860D01*
X184890Y146907D01*
X185156Y146980D01*
X185427Y147030D01*
X185702Y147058D01*
X185840Y147060D01*
X185929Y147061D01*
X186106Y147063D01*
X186284D01*
X186461Y147061D01*
D02*
G37*
G36*
X164170Y148340D02*
Y140730D01*
X164150Y140710D01*
X162520D01*
Y140760D01*
Y142860D01*
X161810Y143550D01*
X161790Y143520D01*
X160110Y140750D01*
X158110Y140740D01*
X160730Y144670D01*
X158460Y146890D01*
X160300D01*
X162540Y144650D01*
Y149270D01*
X164170Y148340D01*
D02*
G37*
G36*
X134796Y147258D02*
X135098Y147223D01*
X135396Y147158D01*
X135540Y147110D01*
X135970Y146968D01*
X136714Y146453D01*
X137281Y145748D01*
X137624Y144910D01*
X137670Y144460D01*
X137670Y144460D01*
X137682Y144338D01*
X137699Y144093D01*
X137706Y143848D01*
X137705Y143603D01*
X137700Y143480D01*
X137690Y143238D01*
X137595Y142764D01*
X137427Y142311D01*
X137190Y141890D01*
X137040Y141700D01*
X136902Y141525D01*
X136571Y141227D01*
X136196Y140987D01*
X135786Y140812D01*
X135570Y140760D01*
X135418Y140723D01*
X135110Y140668D01*
X134799Y140630D01*
X134486Y140611D01*
X134330Y140610D01*
X134154Y140610D01*
X133806Y140652D01*
X133465Y140736D01*
X133136Y140859D01*
X132980Y140940D01*
X132718Y141076D01*
X132260Y141450D01*
X131888Y141910D01*
X131618Y142435D01*
X131540Y142720D01*
X131528Y142765D01*
X131509Y142857D01*
X131496Y142950D01*
X131490Y143043D01*
Y143090D01*
Y143110D01*
X133090D01*
Y143110D01*
X133100Y143008D01*
X133140Y142806D01*
X133206Y142612D01*
X133296Y142427D01*
X133350Y142340D01*
X133350D01*
X133383Y142293D01*
X133457Y142203D01*
X133540Y142123D01*
X133632Y142052D01*
X133680Y142020D01*
X133759Y141974D01*
X133925Y141899D01*
X134099Y141846D01*
X134279Y141816D01*
X134370Y141810D01*
X134451Y141809D01*
X134613Y141817D01*
X134774Y141840D01*
X134932Y141876D01*
X135010Y141900D01*
X135159Y141959D01*
X135429Y142127D01*
X135652Y142356D01*
X135815Y142630D01*
X135870Y142780D01*
X135913Y142930D01*
X135982Y143235D01*
X136029Y143543D01*
X136055Y143854D01*
X136060Y144010D01*
X136052Y144240D01*
X135972Y144692D01*
X135808Y145122D01*
X135567Y145513D01*
X135420Y145690D01*
X135387Y145724D01*
X135313Y145785D01*
X135232Y145836D01*
X135145Y145875D01*
X135100Y145890D01*
X135100Y145890D01*
X135018Y145913D01*
X134852Y145949D01*
X134684Y145974D01*
X134515Y145988D01*
X134430Y145990D01*
X134345Y145989D01*
X134176Y145972D01*
X134010Y145936D01*
X133848Y145883D01*
X133770Y145850D01*
X133639Y145779D01*
X133415Y145584D01*
X133254Y145334D01*
X133171Y145049D01*
X133160Y144900D01*
Y144890D01*
X131510D01*
X131510Y144890D01*
X131524Y145010D01*
X131570Y145248D01*
X131636Y145482D01*
X131719Y145710D01*
X131770Y145820D01*
X131873Y146044D01*
X132171Y146436D01*
X132547Y146755D01*
X132982Y146985D01*
X133220Y147050D01*
X133357Y147088D01*
X133635Y147151D01*
X133916Y147201D01*
X134198Y147238D01*
X134340Y147250D01*
X134492Y147263D01*
X134796Y147258D01*
D02*
G37*
G36*
X140080Y140720D02*
X138130D01*
Y142630D01*
X140080D01*
Y140720D01*
D02*
G37*
G36*
X143361Y147064D02*
X143460Y147060D01*
Y147060D01*
X143617Y147053D01*
X143926Y146991D01*
X144222Y146882D01*
X144496Y146728D01*
X144620Y146630D01*
X144668Y146592D01*
X144759Y146510D01*
X144844Y146422D01*
X144923Y146329D01*
X144960Y146280D01*
X144974Y146261D01*
X145001Y146224D01*
X145029Y146186D01*
X145056Y146149D01*
X145070Y146130D01*
X145076Y146122D01*
X145088Y146107D01*
X145100Y146092D01*
X145113Y146077D01*
X145120Y146070D01*
X145127Y146063D01*
X145143Y146052D01*
X145161Y146044D01*
X145180Y146040D01*
X145190Y146040D01*
X145220D01*
Y146910D01*
X146810D01*
Y140720D01*
X145150D01*
Y144140D01*
X145150Y144174D01*
X145151Y144241D01*
Y144309D01*
X145150Y144376D01*
X145150Y144410D01*
X145150Y144410D01*
X145147Y144489D01*
X145131Y144647D01*
X145101Y144803D01*
X145057Y144955D01*
X145030Y145030D01*
X144999Y145103D01*
X144925Y145241D01*
X144834Y145370D01*
X144728Y145487D01*
X144670Y145540D01*
X144602Y145594D01*
X144455Y145683D01*
X144295Y145747D01*
X144126Y145783D01*
X144040Y145790D01*
X143985Y145792D01*
X143875Y145797D01*
X143765Y145802D01*
X143655Y145807D01*
X143600Y145810D01*
X143567Y145811D01*
X143501Y145807D01*
X143435Y145797D01*
X143371Y145781D01*
X143340Y145770D01*
X143340D01*
X143270Y145741D01*
X143138Y145665D01*
X143021Y145569D01*
X142922Y145454D01*
X142880Y145390D01*
X142827Y145295D01*
X142741Y145095D01*
X142683Y144885D01*
X142654Y144669D01*
X142650Y144560D01*
Y140760D01*
X141040D01*
Y144910D01*
X141042Y145022D01*
X141059Y145244D01*
X141092Y145465D01*
X141139Y145683D01*
X141170Y145790D01*
X141201Y145897D01*
X141289Y146103D01*
X141403Y146295D01*
X141541Y146471D01*
X141620Y146550D01*
X141725Y146654D01*
X141968Y146824D01*
X142237Y146949D01*
X142523Y147026D01*
X142670Y147040D01*
X142768Y147049D01*
X142966Y147061D01*
X143164Y147066D01*
X143361Y147064D01*
D02*
G37*
G36*
X128480Y147190D02*
X129810Y146530D01*
X130650Y145460D01*
X130970Y144060D01*
X130730Y142530D01*
X130100Y141550D01*
X128980Y140850D01*
X127800Y140690D01*
X126810Y140790D01*
X126080Y141040D01*
X125640Y141350D01*
X125170Y141800D01*
X124850Y142310D01*
X124580Y143280D01*
X124480Y144110D01*
X124590Y144970D01*
X125000Y145890D01*
X125430Y146390D01*
X126210Y146930D01*
X126850Y147150D01*
X127640Y147250D01*
X127660Y146080D01*
X127620D01*
X127140Y146040D01*
X126750Y145830D01*
X126410Y145500D01*
X126110Y144850D01*
X126010Y144080D01*
Y143510D01*
X126160Y142890D01*
X126380Y142400D01*
X126820Y142000D01*
X127530Y141760D01*
X128240Y141850D01*
X128910Y142260D01*
X129130Y142680D01*
X129280Y143140D01*
X129350Y143640D01*
X129330Y144380D01*
X129220Y144970D01*
X129060Y145330D01*
X128740Y145770D01*
X128270Y146030D01*
X127830Y146090D01*
Y147240D01*
X127880Y147260D01*
X127900D01*
X128480Y147190D01*
D02*
G37*
G36*
X173315Y147028D02*
X173570Y146980D01*
X173693Y146957D01*
X173936Y146891D01*
X174172Y146806D01*
X174400Y146701D01*
X174510Y146640D01*
X174726Y146519D01*
X175083Y146175D01*
X175340Y145752D01*
X175482Y145278D01*
X175490Y145040D01*
X175500D01*
X175490Y145030D01*
X175490D01*
X175490Y145040D01*
X173830D01*
X173830Y145060D01*
X173820Y145197D01*
X173740Y145459D01*
X173586Y145687D01*
X173373Y145859D01*
X173250Y145920D01*
X173194Y145941D01*
X173078Y145975D01*
X172960Y145998D01*
X172840Y146009D01*
X172780Y146010D01*
X172712Y146009D01*
X172577Y146006D01*
X172442Y146001D01*
X172307Y145994D01*
X172240Y145990D01*
X172182Y145984D01*
X172069Y145960D01*
X171960Y145919D01*
X171858Y145863D01*
X171810Y145830D01*
X171768Y145796D01*
X171692Y145717D01*
X171628Y145629D01*
X171579Y145531D01*
X171560Y145480D01*
X171560D01*
X171537Y145401D01*
X171511Y145238D01*
Y145072D01*
X171537Y144910D01*
X171560Y144830D01*
X171564Y144818D01*
X171575Y144794D01*
X171587Y144771D01*
X171602Y144750D01*
X171610Y144740D01*
X171623Y144725D01*
X171652Y144695D01*
X171682Y144668D01*
X171713Y144642D01*
X171730Y144630D01*
X171773Y144601D01*
X171861Y144550D01*
X171954Y144508D01*
X172051Y144474D01*
X172100Y144460D01*
X172164Y144445D01*
X172293Y144417D01*
X172424Y144395D01*
X172554Y144377D01*
X172620Y144370D01*
Y144370D01*
X172729Y144360D01*
X172946Y144338D01*
X173164Y144315D01*
X173381Y144292D01*
X173490Y144280D01*
X173643Y144263D01*
X173946Y144208D01*
X174244Y144133D01*
X174537Y144037D01*
X174680Y143980D01*
X174788Y143936D01*
X174989Y143818D01*
X175169Y143670D01*
X175326Y143497D01*
X175390Y143400D01*
X175443Y143321D01*
X175527Y143150D01*
X175591Y142971D01*
X175631Y142785D01*
X175640Y142690D01*
X175640Y142690D01*
X175654Y142534D01*
X175641Y142220D01*
X175585Y141910D01*
X175488Y141612D01*
X175420Y141470D01*
X175420D01*
X175384Y141395D01*
X175291Y141256D01*
X175179Y141132D01*
X175051Y141024D01*
X174980Y140980D01*
X174862Y140907D01*
X174611Y140787D01*
X174349Y140696D01*
X174078Y140635D01*
X173940Y140620D01*
X173780Y140603D01*
X173457Y140595D01*
X173136Y140615D01*
X172817Y140663D01*
X172660Y140700D01*
X172660D01*
X172502Y140737D01*
X172201Y140856D01*
X171919Y141016D01*
X171663Y141214D01*
X171550Y141330D01*
Y141330D01*
X171537Y141340D01*
X171507Y141348D01*
X171476Y141339D01*
X171455Y141315D01*
X171450Y141300D01*
X171440Y141248D01*
X171419Y141146D01*
X171397Y141043D01*
X171373Y140941D01*
X171360Y140890D01*
X171360D01*
X171356Y140876D01*
X171349Y140849D01*
X171342Y140821D01*
X171334Y140794D01*
X171330Y140780D01*
X171328Y140774D01*
X171320Y140764D01*
X171309Y140758D01*
X171296Y140758D01*
X171290Y140760D01*
X169700D01*
X169730Y140840D01*
X169774Y140967D01*
X169843Y141225D01*
X169889Y141489D01*
X169909Y141756D01*
X169910Y141890D01*
Y141890D01*
X169906Y142104D01*
X169901Y142531D01*
X169899Y142959D01*
X169899Y143386D01*
X169900Y143600D01*
X171510D01*
Y143270D01*
X171512Y143161D01*
X171526Y142945D01*
X171553Y142729D01*
X171594Y142516D01*
X171620Y142410D01*
X171622Y142401D01*
X171627Y142384D01*
X171632Y142366D01*
X171637Y142349D01*
X171640Y142340D01*
X171640Y142340D01*
X171649Y142313D01*
X171672Y142260D01*
X171700Y142210D01*
X171732Y142162D01*
X171750Y142140D01*
X171784Y142100D01*
X171855Y142024D01*
X171931Y141951D01*
X172009Y141883D01*
X172050Y141850D01*
X172079Y141828D01*
X172141Y141789D01*
X172206Y141756D01*
X172275Y141730D01*
X172310Y141720D01*
X172362Y141707D01*
X172466Y141686D01*
X172571Y141671D01*
X172677Y141662D01*
X172730Y141660D01*
X172806Y141659D01*
X172959Y141659D01*
X173112Y141665D01*
X173264Y141674D01*
X173340Y141680D01*
X173413Y141690D01*
X173555Y141729D01*
X173688Y141793D01*
X173807Y141879D01*
X173860Y141930D01*
X173893Y141968D01*
X173951Y142051D01*
X173994Y142143D01*
X174022Y142240D01*
X174030Y142290D01*
X174037Y142380D01*
X174032Y142561D01*
X173999Y142738D01*
X173939Y142909D01*
X173900Y142990D01*
X173900Y142990D01*
X173881Y143023D01*
X173838Y143087D01*
X173787Y143145D01*
X173731Y143197D01*
X173700Y143220D01*
X173700Y143220D01*
X173629Y143268D01*
X173479Y143349D01*
X173320Y143409D01*
X173154Y143449D01*
X173070Y143460D01*
X172999Y143467D01*
X172856Y143482D01*
X172714Y143497D01*
X172571Y143512D01*
X172500Y143520D01*
X172401Y143531D01*
X172206Y143564D01*
X172013Y143609D01*
X171823Y143666D01*
X171730Y143700D01*
X171697Y143712D01*
X171638Y143747D01*
X171587Y143794D01*
X171545Y143849D01*
X171530Y143880D01*
X171510D01*
Y143640D01*
X169910D01*
Y145540D01*
X169910Y145687D01*
X169981Y145972D01*
X170120Y146231D01*
X170318Y146449D01*
X170440Y146530D01*
X170561Y146611D01*
X170819Y146747D01*
X171088Y146858D01*
X171367Y146942D01*
X171510Y146970D01*
X171764Y147020D01*
X172280Y147072D01*
X172799Y147074D01*
X173315Y147028D01*
D02*
G37*
G36*
X165450Y147050D02*
X165554Y147048D01*
X165761Y147013D01*
X165959Y146947D01*
X166145Y146851D01*
X166230Y146790D01*
X166230Y146790D01*
X166273Y146760D01*
X166359Y146700D01*
X166446Y146643D01*
X166535Y146587D01*
X166580Y146560D01*
X166622Y146535D01*
X166700Y146475D01*
X166771Y146407D01*
X166833Y146331D01*
X166860Y146290D01*
X166893Y146239D01*
X166961Y146136D01*
X167028Y146033D01*
X167096Y145931D01*
X167130Y145880D01*
X167210Y145760D01*
X167270Y145740D01*
X167310Y145760D01*
Y146890D01*
X168830Y146620D01*
X168840Y140760D01*
X167200D01*
Y143840D01*
X167198Y143925D01*
X167183Y144095D01*
X167155Y144263D01*
X167115Y144429D01*
X167090Y144510D01*
X167044Y144634D01*
X166921Y144869D01*
X166760Y145080D01*
X166567Y145262D01*
X166460Y145340D01*
X166388Y145385D01*
X166238Y145460D01*
X166078Y145515D01*
X165914Y145550D01*
X165830Y145560D01*
X165754Y145566D01*
X165601Y145572D01*
X165449D01*
X165296Y145566D01*
X165220Y145560D01*
X165189Y145557D01*
X165129Y145548D01*
X165068Y145536D01*
X165009Y145519D01*
X164980Y145510D01*
X164973Y145508D01*
X164958Y145504D01*
X164943Y145501D01*
X164928Y145500D01*
X164920Y145500D01*
X164910D01*
Y147020D01*
X164910D01*
X164910Y147020D01*
Y147020D01*
X164977Y147029D01*
X165112Y147041D01*
X165247Y147049D01*
X165382Y147051D01*
X165450Y147050D01*
D02*
G37*
G36*
X155114Y149256D02*
X155190Y149250D01*
X155393Y149235D01*
X155784Y149127D01*
X156147Y148944D01*
X156468Y148694D01*
X156600Y148540D01*
X156657Y148474D01*
X156751Y148328D01*
X156824Y148171D01*
X156876Y148006D01*
X156890Y147920D01*
X156907Y147816D01*
X156934Y147607D01*
X156951Y147396D01*
X156960Y147186D01*
X156960Y147080D01*
X156960Y146900D01*
X157500D01*
X158550Y145850D01*
X156980Y145840D01*
Y145760D01*
Y140720D01*
X155340D01*
Y145850D01*
X154160D01*
Y146900D01*
X155330D01*
Y147450D01*
X155328Y147498D01*
X155315Y147594D01*
X155290Y147688D01*
X155253Y147777D01*
X155230Y147820D01*
X155203Y147861D01*
X155138Y147933D01*
X155058Y147990D01*
X154968Y148028D01*
X154920Y148040D01*
X154920Y148040D01*
X154829Y148055D01*
X154647Y148072D01*
X154463D01*
X154281Y148055D01*
X154190Y148040D01*
X154176Y148038D01*
X154149Y148034D01*
X154121Y148031D01*
X154094Y148030D01*
X154080Y148030D01*
X154050D01*
Y149220D01*
X154060D01*
Y149220D01*
X154125Y149223D01*
X154255Y149229D01*
X154385Y149237D01*
X154515Y149245D01*
X154580Y149250D01*
X154656Y149256D01*
X154809Y149261D01*
X154961D01*
X155114Y149256D01*
D02*
G37*
G36*
X156925Y159361D02*
X157174Y159292D01*
X157411Y159188D01*
X157520Y159120D01*
X157600Y159070D01*
X157753Y158959D01*
X157899Y158839D01*
X158036Y158709D01*
X158100Y158640D01*
X158100Y158640D01*
X158225Y158504D01*
X158380Y158169D01*
X158423Y157803D01*
X158350Y157441D01*
X158260Y157280D01*
X158157Y157098D01*
X157923Y156751D01*
X157662Y156424D01*
X157375Y156120D01*
X157220Y155980D01*
X157085Y155827D01*
X156936Y155451D01*
X156967Y155048D01*
X157173Y154700D01*
X157330Y154570D01*
Y154570D01*
X157411Y154521D01*
X157581Y154438D01*
X157760Y154377D01*
X157946Y154340D01*
X158040Y154330D01*
X158150Y154327D01*
X158367Y154351D01*
X158577Y154415D01*
X158771Y154516D01*
X158860Y154580D01*
X158897Y154611D01*
X158963Y154681D01*
X159019Y154759D01*
X159063Y154845D01*
X159080Y154890D01*
X159099Y154955D01*
X159121Y155088D01*
Y155222D01*
X159099Y155355D01*
X159080Y155420D01*
X159073Y155438D01*
X159055Y155471D01*
X159032Y155502D01*
X159005Y155528D01*
X158990Y155540D01*
X158948Y155570D01*
X158865Y155629D01*
X158783Y155689D01*
X158701Y155749D01*
X158660Y155780D01*
X158660Y155780D01*
X158638Y155795D01*
X158590Y155816D01*
X158538Y155826D01*
X158492Y155825D01*
X158460Y155820D01*
X158486Y155825D01*
X158492Y155825D01*
X158650Y155850D01*
X158742Y155864D01*
X158927Y155879D01*
X159113D01*
X159298Y155864D01*
X159390Y155850D01*
X159531Y155828D01*
X159799Y155727D01*
X160042Y155575D01*
X160248Y155378D01*
X160330Y155260D01*
X160400Y155158D01*
X160508Y154936D01*
X160579Y154699D01*
X160613Y154454D01*
X160610Y154330D01*
Y148360D01*
X158690Y150520D01*
X158611Y150605D01*
X158440Y150761D01*
X158253Y150900D01*
X158054Y151019D01*
X157950Y151070D01*
X157914Y151086D01*
X157841Y151112D01*
X157766Y151132D01*
X157689Y151146D01*
X157650Y151150D01*
X157650Y151150D01*
X156750D01*
X156547Y151150D01*
X156146Y151205D01*
X155755Y151314D01*
X155383Y151475D01*
X155210Y151580D01*
X155031Y151689D01*
X154697Y151942D01*
X154392Y152229D01*
X154119Y152548D01*
X154000Y152720D01*
X153784Y153034D01*
X153471Y153729D01*
X153289Y154470D01*
X153244Y155231D01*
X153290Y155610D01*
X153309Y155766D01*
X153382Y156071D01*
X153488Y156366D01*
X153626Y156648D01*
X153710Y156780D01*
X153710Y156780D01*
X153787Y156901D01*
X153966Y157125D01*
X154168Y157330D01*
X154390Y157511D01*
X154510Y157590D01*
X154510D01*
Y157240D01*
X154510Y157226D01*
X154514Y157197D01*
X154522Y157169D01*
X154533Y157143D01*
X154540Y157130D01*
X154565Y157091D01*
X154624Y157018D01*
X154692Y156955D01*
X154769Y156902D01*
X154810Y156880D01*
X154820Y156875D01*
X154839Y156867D01*
X154859Y156859D01*
X154880Y156853D01*
X154890Y156850D01*
X154974Y156833D01*
X155144Y156827D01*
X155311Y156858D01*
X155468Y156924D01*
X155540Y156970D01*
X155585Y157002D01*
X155675Y157067D01*
X155765Y157132D01*
X155855Y157197D01*
X155900Y157230D01*
X155944Y157263D01*
X156027Y157335D01*
X156105Y157413D01*
X156177Y157496D01*
X156210Y157540D01*
X156242Y157585D01*
X156299Y157679D01*
X156350Y157776D01*
X156392Y157878D01*
X156410Y157930D01*
X156419Y157962D01*
X156432Y158026D01*
X156437Y158092D01*
X156434Y158157D01*
X156430Y158190D01*
Y158190D01*
X156404Y158300D01*
X156311Y158507D01*
X156168Y158682D01*
X155983Y158813D01*
X155880Y158860D01*
X155831Y158877D01*
X155729Y158906D01*
X155627Y158926D01*
X155522Y158937D01*
X155470Y158940D01*
X155470Y158940D01*
X155440Y158941D01*
X155380Y158942D01*
X155320D01*
X155260Y158941D01*
X155230Y158940D01*
D01*
X155230D01*
X155230D01*
X155240Y158950D01*
X155279Y158988D01*
X155365Y159055D01*
X155458Y159111D01*
X155558Y159154D01*
X155610Y159170D01*
X155628Y159176D01*
X155664Y159189D01*
X155699Y159204D01*
X155733Y159221D01*
X155750Y159230D01*
X155761Y159236D01*
X155783Y159247D01*
X155805Y159257D01*
X155828Y159266D01*
X155840Y159270D01*
X155925Y159298D01*
X156098Y159341D01*
X156273Y159371D01*
X156451Y159388D01*
X156540Y159390D01*
X156540Y159390D01*
X156669Y159393D01*
X156925Y159361D01*
D02*
G37*
G36*
X179178Y147059D02*
X179373Y147049D01*
X179470Y147040D01*
X179494Y147038D01*
X179542Y147031D01*
X179590Y147021D01*
X179637Y147008D01*
X179660Y147000D01*
X179726Y146977D01*
X179858Y146929D01*
X179988Y146876D01*
X180117Y146820D01*
X180180Y146790D01*
X180180Y146790D01*
X180221Y146771D01*
X180298Y146725D01*
X180371Y146672D01*
X180439Y146613D01*
X180470Y146580D01*
X180514Y146533D01*
X180603Y146439D01*
X180690Y146344D01*
X180777Y146248D01*
X180820Y146200D01*
X180910Y146100D01*
X180930Y146110D01*
X180960Y146140D01*
X180950Y146930D01*
X182480Y146640D01*
Y146610D01*
Y138540D01*
X180850Y137070D01*
Y141480D01*
Y142700D01*
X180800D01*
Y142700D01*
X180792Y142699D01*
X180778Y142705D01*
X180769Y142718D01*
X180767Y142733D01*
X180770Y142740D01*
Y142740D01*
X180783Y142773D01*
X180807Y142840D01*
X180830Y142908D01*
X180850Y142976D01*
X180860Y143010D01*
X180870Y143048D01*
X180886Y143125D01*
X180899Y143203D01*
X180907Y143281D01*
X180910Y143320D01*
X180916Y143446D01*
X180924Y143699D01*
X180927Y143951D01*
X180924Y144204D01*
X180920Y144330D01*
X180911Y144454D01*
X180866Y144700D01*
X180784Y144935D01*
X180669Y145156D01*
X180600Y145260D01*
X180544Y145333D01*
X180424Y145470D01*
X180290Y145596D01*
X180146Y145709D01*
X180070Y145760D01*
X180036Y145781D01*
X179964Y145815D01*
X179888Y145840D01*
X179810Y145856D01*
X179770Y145860D01*
X179770D01*
X179716Y145864D01*
X179609Y145870D01*
X179501Y145875D01*
X179394Y145879D01*
X179340Y145880D01*
X179253Y145878D01*
X179080Y145856D01*
X178913Y145808D01*
X178755Y145735D01*
X178680Y145690D01*
X178519Y145571D01*
X178243Y145283D01*
X178039Y144939D01*
X177917Y144558D01*
X177890Y144360D01*
X177890Y144360D01*
X177878Y144164D01*
X177878Y143771D01*
X177908Y143380D01*
X177968Y142992D01*
X178010Y142800D01*
X178059Y142641D01*
X178216Y142348D01*
X178443Y142106D01*
X178725Y141929D01*
X178880Y141870D01*
X178969Y141845D01*
X179150Y141809D01*
X179333Y141791D01*
X179518Y141792D01*
X179610Y141800D01*
Y141800D01*
X179684Y141810D01*
X179832Y141841D01*
X179975Y141886D01*
X180113Y141945D01*
X180180Y141980D01*
X180263Y142030D01*
X180413Y142151D01*
X180541Y142297D01*
X180641Y142462D01*
X180680Y142550D01*
X180682Y142554D01*
X180686Y142562D01*
X180691Y142570D01*
X180697Y142577D01*
X180700Y142580D01*
X180707Y142587D01*
X180718Y142603D01*
X180726Y142621D01*
X180729Y142640D01*
X180730Y142650D01*
X180730Y142670D01*
X180760Y142640D01*
Y141470D01*
X180760D01*
X180673Y141318D01*
X180438Y141058D01*
X180153Y140854D01*
X179832Y140714D01*
X179660Y140680D01*
X179660Y140680D01*
X179482Y140644D01*
X179120Y140611D01*
X178757Y140616D01*
X178397Y140659D01*
X178220Y140700D01*
X178034Y140743D01*
X177682Y140889D01*
X177360Y141094D01*
X177078Y141350D01*
X176960Y141500D01*
X176960D01*
X176831Y141665D01*
X176618Y142025D01*
X176453Y142410D01*
X176340Y142813D01*
X176310Y143020D01*
X176263Y143345D01*
X176258Y144002D01*
X176341Y144653D01*
X176512Y145287D01*
X176640Y145590D01*
X176640Y145590D01*
X176686Y145698D01*
X176800Y145904D01*
X176936Y146095D01*
X177093Y146271D01*
X177180Y146350D01*
X177180Y146350D01*
X177257Y146420D01*
X177419Y146548D01*
X177590Y146666D01*
X177768Y146773D01*
X177860Y146820D01*
X177956Y146870D01*
X178159Y146949D01*
X178368Y147007D01*
X178582Y147043D01*
X178690Y147050D01*
X178787Y147056D01*
X178983Y147061D01*
X179178Y147059D01*
D02*
G37*
G36*
X184980Y145180D02*
Y145180D01*
D01*
Y145180D01*
D02*
G37*
G36*
X120050Y147260D02*
X120050Y147260D01*
X120118Y147258D01*
X120253Y147250D01*
X120388Y147237D01*
X120523Y147221D01*
X120590Y147210D01*
X120645Y147202D01*
X120753Y147180D01*
X120861Y147155D01*
X120967Y147126D01*
X121020Y147110D01*
X121020D01*
X121112Y147081D01*
X121288Y147001D01*
X121452Y146900D01*
X121603Y146779D01*
X121670Y146710D01*
X121970Y146400D01*
X122100Y146230D01*
X122190Y146210D01*
Y147080D01*
X123760D01*
Y140760D01*
X122060D01*
Y144620D01*
X122060D01*
X122072Y144714D01*
X122069Y144903D01*
X122028Y145088D01*
X121951Y145260D01*
X121900Y145340D01*
X121863Y145391D01*
X121785Y145490D01*
X121702Y145585D01*
X121615Y145676D01*
X121570Y145720D01*
X121518Y145766D01*
X121402Y145843D01*
X121274Y145899D01*
X121139Y145932D01*
X121070Y145940D01*
X121028Y145943D01*
X120943Y145948D01*
X120858Y145953D01*
X120773Y145958D01*
X120730Y145960D01*
X120730Y145960D01*
X120632Y145959D01*
X120438Y145924D01*
X120257Y145847D01*
X120099Y145731D01*
X120030Y145660D01*
X119966Y145580D01*
X119862Y145404D01*
X119791Y145213D01*
X119755Y145012D01*
X119750Y144910D01*
Y140750D01*
X118050D01*
Y144500D01*
X118050D01*
X118049Y144555D01*
X118045Y144665D01*
X118037Y144775D01*
X118027Y144885D01*
X118020Y144940D01*
X118003Y145039D01*
X117948Y145232D01*
X117864Y145415D01*
X117754Y145583D01*
X117690Y145660D01*
X117643Y145708D01*
X117538Y145792D01*
X117421Y145858D01*
X117295Y145905D01*
X117230Y145920D01*
X117230Y145920D01*
X117140Y145935D01*
X116957Y145954D01*
X116774Y145957D01*
X116591Y145943D01*
X116500Y145930D01*
X116405Y145909D01*
X116225Y145834D01*
X116068Y145720D01*
X115940Y145573D01*
X115890Y145490D01*
X115851Y145409D01*
X115787Y145242D01*
X115744Y145068D01*
X115723Y144890D01*
X115720Y144800D01*
Y140750D01*
X114050D01*
Y145310D01*
X114050D01*
X114058Y145474D01*
X114125Y145796D01*
X114239Y146104D01*
X114399Y146390D01*
X114500Y146520D01*
X114584Y146628D01*
X114786Y146815D01*
X115016Y146965D01*
X115267Y147076D01*
X115400Y147110D01*
X115523Y147141D01*
X115771Y147190D01*
X116021Y147225D01*
X116273Y147247D01*
X116400Y147250D01*
X116400Y147250D01*
X116533Y147254D01*
X116796Y147223D01*
X117053Y147154D01*
X117297Y147049D01*
X117410Y146980D01*
X117502Y146924D01*
X117677Y146798D01*
X117843Y146660D01*
X117998Y146510D01*
X118070Y146430D01*
X118092Y146406D01*
X118136Y146358D01*
X118181Y146310D01*
X118227Y146263D01*
X118250Y146240D01*
X118286Y146204D01*
X118286D01*
X118320Y146190D01*
X118393Y146350D01*
X118597Y146635D01*
X118851Y146877D01*
X119147Y147065D01*
X119310Y147130D01*
X119398Y147165D01*
X119580Y147216D01*
X119767Y147249D01*
X119955Y147263D01*
X120050Y147260D01*
D02*
G37*
%LPC*%
G36*
X172780Y146010D02*
X172780D01*
D01*
X172780D01*
D02*
G37*
%LPD*%
D18*
X141500Y149000D02*
Y154998D01*
X139501Y152999D01*
X137501Y154998D01*
Y149000D01*
X135502D02*
X133503D01*
X134502D01*
Y154998D01*
X135502Y153998D01*
X126505D02*
X127505Y154998D01*
X129504D01*
X130504Y153998D01*
Y150000D01*
X129504Y149000D01*
X127505D01*
X126505Y150000D01*
Y151999D01*
X128504D01*
X120507Y154998D02*
X124505D01*
Y149000D01*
X120507D01*
X124505Y151999D02*
X122506D01*
X115508Y154998D02*
X117508D01*
X118507Y153998D01*
Y150000D01*
X117508Y149000D01*
X115508D01*
X114509Y150000D01*
Y153998D01*
X115508Y154998D01*
D19*
X100000Y190000D02*
X205000D01*
Y100000D02*
Y190000D01*
X100000Y100000D02*
X205000D01*
X100000D02*
Y190000D01*
D37*
X193000Y157552D02*
X189828D01*
X188242Y159139D01*
X189828Y160725D01*
X193000D01*
Y162311D02*
X189035D01*
X188242Y163104D01*
Y164690D01*
X189035Y165483D01*
X193000D01*
X192207Y170241D02*
X193000Y169448D01*
Y167862D01*
X192207Y167069D01*
X191414D01*
X190621Y167862D01*
Y169448D01*
X189828Y170241D01*
X189035D01*
X188242Y169448D01*
Y167862D01*
X189035Y167069D01*
X193000Y171828D02*
X188242D01*
Y174207D01*
X189035Y175000D01*
X189828D01*
X190621Y174207D01*
Y171828D01*
Y174207D01*
X191414Y175000D01*
X192207D01*
X193000Y174207D01*
Y171828D01*
X183000Y158345D02*
X179828D01*
X178242Y159932D01*
X179828Y161518D01*
X183000D01*
X182207Y163104D02*
X183000Y163897D01*
Y165483D01*
X182207Y166276D01*
X181414D01*
X180621Y165483D01*
Y164690D01*
Y165483D01*
X179828Y166276D01*
X179035D01*
X178242Y165483D01*
Y163897D01*
X179035Y163104D01*
X178242Y167862D02*
X179035D01*
Y168655D01*
X178242D01*
Y167862D01*
X182207Y171828D02*
X183000Y172621D01*
Y174207D01*
X182207Y175000D01*
X181414D01*
X180621Y174207D01*
Y173414D01*
Y174207D01*
X179828Y175000D01*
X179035D01*
X178242Y174207D01*
Y172621D01*
X179035Y171828D01*
X173000Y162311D02*
Y165483D01*
Y163897D01*
X168242D01*
X173000Y167069D02*
X168242Y170241D01*
X173000D02*
X168242Y167069D01*
X173000Y175000D02*
Y171828D01*
X168242D01*
Y175000D01*
X170621Y171828D02*
Y173414D01*
X158241Y162311D02*
X163000D01*
Y164690D01*
X162207Y165483D01*
X160621D01*
X159828Y164690D01*
Y162311D01*
Y163897D02*
X158241Y165483D01*
X163000Y167069D02*
X158241Y170241D01*
X163000D02*
X158241Y167069D01*
X163000Y175000D02*
Y171828D01*
X160621D01*
Y173414D01*
Y171828D01*
X158241D01*
X153000Y167069D02*
X148241D01*
X149828Y168655D01*
X148241Y170241D01*
X153000D01*
X148241Y171828D02*
X153000D01*
Y174207D01*
X152207Y175000D01*
X150621D01*
X149828Y174207D01*
Y171828D01*
Y173414D02*
X148241Y175000D01*
X138242Y167069D02*
X143000D01*
Y169448D01*
X142207Y170241D01*
X140621D01*
X139828Y169448D01*
Y167069D01*
Y168655D02*
X138242Y170241D01*
X143000Y171828D02*
X138242D01*
Y174207D01*
X139035Y175000D01*
X142207D01*
X143000Y174207D01*
Y171828D01*
X128242Y157552D02*
X133000D01*
Y159932D01*
X132207Y160725D01*
X130621D01*
X129828Y159932D01*
Y157552D01*
X133000Y162311D02*
X128242D01*
X129828Y163897D01*
X128242Y165483D01*
X133000D01*
Y170241D02*
Y167069D01*
X128242D01*
Y170241D01*
X130621Y167069D02*
Y168655D01*
X128242Y171828D02*
X133000D01*
X128242Y175000D01*
X133000D01*
X122207Y165483D02*
X123000Y164690D01*
Y163104D01*
X122207Y162311D01*
X119035D01*
X118242Y163104D01*
Y164690D01*
X119035Y165483D01*
X120621D01*
Y163897D01*
X118242Y167069D02*
X123000D01*
X118242Y170241D01*
X123000D01*
Y171828D02*
X118242D01*
Y174207D01*
X119035Y175000D01*
X122207D01*
X123000Y174207D01*
Y171828D01*
X192259Y115000D02*
X187500D01*
Y117379D01*
X188293Y118172D01*
X191465D01*
X192259Y117379D01*
Y115000D01*
Y119758D02*
Y122931D01*
X191465D01*
X188293Y119758D01*
X187500D01*
X182258Y115000D02*
X177500D01*
Y117379D01*
X178293Y118172D01*
X181465D01*
X182258Y117379D01*
Y115000D01*
Y122931D02*
X181465Y121345D01*
X179879Y119758D01*
X178293D01*
X177500Y120552D01*
Y122138D01*
X178293Y122931D01*
X179086D01*
X179879Y122138D01*
Y119758D01*
X172258Y115000D02*
X167500D01*
Y117379D01*
X168293Y118172D01*
X171465D01*
X172258Y117379D01*
Y115000D01*
Y122931D02*
Y119758D01*
X169879D01*
X170672Y121345D01*
Y122138D01*
X169879Y122931D01*
X168293D01*
X167500Y122138D01*
Y120552D01*
X168293Y119758D01*
X162259Y115000D02*
X157500D01*
Y117379D01*
X158293Y118172D01*
X161465D01*
X162259Y117379D01*
Y115000D01*
X157500Y122138D02*
X162259D01*
X159879Y119758D01*
Y122931D01*
X152259Y115000D02*
X147500D01*
Y117379D01*
X148293Y118172D01*
X151465D01*
X152259Y117379D01*
Y115000D01*
X151465Y119758D02*
X152259Y120552D01*
Y122138D01*
X151465Y122931D01*
X150672D01*
X149879Y122138D01*
Y121345D01*
Y122138D01*
X149086Y122931D01*
X148293D01*
X147500Y122138D01*
Y120552D01*
X148293Y119758D01*
X142383Y114941D02*
X137624D01*
Y117320D01*
X138417Y118113D01*
X141589D01*
X142383Y117320D01*
Y114941D01*
X137624Y122872D02*
Y119700D01*
X140796Y122872D01*
X141589D01*
X142383Y122079D01*
Y120492D01*
X141589Y119700D01*
X132258Y115000D02*
X127500D01*
Y117379D01*
X128293Y118172D01*
X131465D01*
X132258Y117379D01*
Y115000D01*
X127500Y119758D02*
Y121345D01*
Y120552D01*
X132258D01*
X131465Y119758D01*
X122258Y115000D02*
X117500D01*
Y117379D01*
X118293Y118172D01*
X121465D01*
X122258Y117379D01*
Y115000D01*
X121465Y119758D02*
X122258Y120552D01*
Y122138D01*
X121465Y122931D01*
X118293D01*
X117500Y122138D01*
Y120552D01*
X118293Y119758D01*
X121465D01*
X111758Y115000D02*
X108586D01*
X107000Y116586D01*
X108586Y118172D01*
X111758D01*
X110965Y122931D02*
X111758Y122138D01*
Y120552D01*
X110965Y119758D01*
X107793D01*
X107000Y120552D01*
Y122138D01*
X107793Y122931D01*
X110965Y127689D02*
X111758Y126896D01*
Y125310D01*
X110965Y124517D01*
X107793D01*
X107000Y125310D01*
Y126896D01*
X107793Y127689D01*
X111758Y129275D02*
Y130861D01*
Y130069D01*
X107000D01*
Y129275D01*
Y130861D01*
X111758Y135620D02*
Y134034D01*
X110965Y133241D01*
X107793D01*
X107000Y134034D01*
Y135620D01*
X107793Y136413D01*
X110965D01*
X111758Y135620D01*
X112207Y165483D02*
X113000Y164690D01*
Y163104D01*
X112207Y162311D01*
X109035D01*
X108241Y163104D01*
Y164690D01*
X109035Y165483D01*
X110621D01*
Y163897D01*
X108241Y167069D02*
X113000D01*
X108241Y170242D01*
X113000D01*
Y171828D02*
X108241D01*
Y174207D01*
X109035Y175000D01*
X112207D01*
X113000Y174207D01*
Y171828D01*
D38*
X145120Y146070D02*
X145190Y146040D01*
X145070Y146130D02*
X145120Y146070D01*
X145070Y146130D02*
X144960Y146280D01*
Y146280D02*
X144620Y146630D01*
X144620Y146630D02*
X143460Y147060D01*
X143460D02*
X142670Y147040D01*
Y147040D02*
X141620Y146550D01*
X141620D02*
X141170Y145790D01*
X141170D02*
X141040Y144910D01*
X142880Y145390D02*
X142650Y144560D01*
X143340Y145770D02*
X142880Y145390D01*
X143600Y145810D02*
X143340Y145770D01*
X143600Y145810D02*
X144040Y145790D01*
X144670Y145540D02*
X144040Y145790D01*
X145030Y145030D02*
X144670Y145540D01*
X145150Y144410D02*
X145030Y145030D01*
X145150Y144140D02*
Y144410D01*
X128850Y145540D02*
X127870Y146020D01*
X129280Y144420D02*
X128850Y145540D01*
X129270Y143450D02*
X129280Y144420D01*
X129000Y142550D02*
X129270Y143450D01*
X128260Y141930D02*
X129000Y142550D01*
X126940Y142010D02*
X128260Y141930D01*
X126370Y142550D02*
X126940Y142010D01*
X126060Y143770D02*
X126370Y142550D01*
X126170Y144760D02*
X126060Y143770D01*
X126670Y145680D02*
X126170Y144760D01*
X127080Y145940D02*
X126670Y145680D01*
X127700Y146040D02*
X127080Y145940D01*
X127640Y147290D02*
X126760Y147180D01*
X126760Y147180D02*
X125500Y146520D01*
X125500Y146520D02*
X124911Y145836D01*
X124541Y145014D01*
X124420Y144120D01*
X124510Y143234D01*
X124760Y142380D01*
X125404Y141429D01*
X126390Y140840D01*
X127810Y140620D01*
X128962Y140830D01*
X129980Y141410D01*
X129980Y141410D02*
X130490Y142000D01*
X130490D02*
X130920Y143170D01*
X130920D02*
X130979Y143925D01*
X130910Y144680D01*
X130632Y145519D01*
X130128Y146246D01*
X129440Y146800D01*
X129440Y146800D02*
X128640Y147148D01*
X127780Y147290D01*
X146810Y140720D02*
Y146910D01*
X145220D02*
X146810D01*
X145220Y146040D02*
Y146910D01*
X145190Y146040D02*
X145220D01*
X141040Y140760D02*
Y144910D01*
Y140760D02*
X142650D01*
Y144560D01*
X145150Y140720D02*
Y144140D01*
Y140720D02*
X146810D01*
X127780Y146020D02*
Y147290D01*
Y146020D02*
X127870D01*
X127700Y146040D02*
Y147290D01*
X127640D02*
X127700D01*
M02*
