M48
;Layer_Color=9474304
;FILE_FORMAT=2:5
INCH,LZ
;TYPE=PLATED
T1F00S00C0.02000
T2F00S00C0.03543
T3F00S00C0.04000
%
T01
X013512Y012071
X0137Y014
X013
X0144Y0142
X015
X0155
X01555Y01525
X0145Y0137
X01625Y01365
X0167Y0134
X018307Y01707
T02
X0185Y0136339
Y0153661
T03
X011Y011
X012
X013
X014
X015
X016
X017
X018
X019
Y018
X018
X017
X016
X015
X014
X013
X012
X011
M30
