G04 Layer_Physical_Order=2*
G04 Layer_Color=16711680*
%FSLAX25Y25*%
%MOIN*%
G70*
G01*
G75*
%ADD18C,0.01000*%
%ADD19C,0.00800*%
%ADD20C,0.03543*%
%ADD21C,0.07400*%
%ADD22C,0.04000*%
%ADD23C,0.00510*%
G36*
X203777Y101224D02*
X101224D01*
Y132164D01*
X106310D01*
Y156310D01*
X101224D01*
Y188777D01*
X203777D01*
Y101224D01*
D02*
G37*
%LPC*%
G36*
X140000Y184539D02*
X138825Y184384D01*
X137731Y183931D01*
X136791Y183209D01*
X136069Y182269D01*
X135616Y181175D01*
X135461Y180000D01*
X135616Y178825D01*
X136069Y177731D01*
X136791Y176791D01*
X137731Y176069D01*
X138825Y175616D01*
X140000Y175461D01*
X141175Y175616D01*
X142119Y176007D01*
X150674Y167451D01*
Y161853D01*
X150213Y161662D01*
X133993Y177881D01*
X134384Y178825D01*
X134539Y180000D01*
X134384Y181175D01*
X133931Y182269D01*
X133209Y183209D01*
X132269Y183931D01*
X131175Y184384D01*
X130000Y184539D01*
X128825Y184384D01*
X127731Y183931D01*
X126791Y183209D01*
X126069Y182269D01*
X125616Y181175D01*
X125461Y180000D01*
X125616Y178825D01*
X126069Y177731D01*
X126791Y176791D01*
X127731Y176069D01*
X128825Y175616D01*
X130000Y175461D01*
X131175Y175616D01*
X132119Y176007D01*
X148674Y159451D01*
Y144482D01*
X148588Y144446D01*
X148003Y143997D01*
X147554Y143412D01*
X147272Y142731D01*
X147252Y142580D01*
X146748D01*
X146728Y142731D01*
X146446Y143412D01*
X145997Y143997D01*
X145412Y144446D01*
X144731Y144728D01*
X144000Y144824D01*
X143269Y144728D01*
X142588Y144446D01*
X142003Y143997D01*
X141554Y143412D01*
X141442Y143140D01*
X140852Y143023D01*
X139437Y144437D01*
X139007Y144725D01*
X138500Y144825D01*
X133500D01*
X132993Y144725D01*
X132563Y144437D01*
X130818Y142692D01*
X130731Y142728D01*
X130000Y142824D01*
X129269Y142728D01*
X128588Y142446D01*
X128003Y141997D01*
X127554Y141412D01*
X127272Y140731D01*
X127176Y140000D01*
X127272Y139269D01*
X127554Y138588D01*
X128003Y138003D01*
X128588Y137554D01*
X129269Y137272D01*
X130000Y137176D01*
X130731Y137272D01*
X131412Y137554D01*
X131997Y138003D01*
X132446Y138588D01*
X132728Y139269D01*
X132824Y140000D01*
X132728Y140731D01*
X132692Y140818D01*
X134046Y142172D01*
X134531Y142130D01*
X134756Y141674D01*
X134554Y141412D01*
X134272Y140731D01*
X134176Y140000D01*
X134272Y139269D01*
X134554Y138588D01*
X135003Y138003D01*
X135588Y137554D01*
X136269Y137272D01*
X137000Y137176D01*
X137215Y136988D01*
Y119089D01*
X132119Y113993D01*
X131175Y114384D01*
X130000Y114539D01*
X128825Y114384D01*
X127731Y113931D01*
X126791Y113209D01*
X126069Y112269D01*
X125616Y111175D01*
X125461Y110000D01*
X125616Y108825D01*
X126069Y107731D01*
X126791Y106791D01*
X127731Y106069D01*
X128825Y105616D01*
X130000Y105461D01*
X131175Y105616D01*
X132269Y106069D01*
X133209Y106791D01*
X133931Y107731D01*
X134384Y108825D01*
X134539Y110000D01*
X134384Y111175D01*
X133993Y112119D01*
X139477Y117603D01*
X139765Y118033D01*
X139866Y118540D01*
Y122907D01*
X140327Y123098D01*
X143675Y119751D01*
Y113367D01*
X143422Y113282D01*
X143175Y113236D01*
X142269Y113931D01*
X141175Y114384D01*
X140000Y114539D01*
X138825Y114384D01*
X137731Y113931D01*
X136791Y113209D01*
X136069Y112269D01*
X135616Y111175D01*
X135461Y110000D01*
X135616Y108825D01*
X136069Y107731D01*
X136791Y106791D01*
X137731Y106069D01*
X138825Y105616D01*
X140000Y105461D01*
X141175Y105616D01*
X142269Y106069D01*
X143209Y106791D01*
X143317Y106930D01*
X143877Y106840D01*
X144063Y106563D01*
X146563Y104063D01*
X146993Y103775D01*
X147500Y103674D01*
X155000D01*
X155507Y103775D01*
X155937Y104063D01*
X157881Y106007D01*
X158825Y105616D01*
X160000Y105461D01*
X161175Y105616D01*
X162269Y106069D01*
X163209Y106791D01*
X163931Y107731D01*
X164384Y108825D01*
X164539Y110000D01*
X164384Y111175D01*
X163931Y112269D01*
X163209Y113209D01*
X162269Y113931D01*
X161175Y114384D01*
X160000Y114539D01*
X158825Y114384D01*
X157731Y113931D01*
X156791Y113209D01*
X156069Y112269D01*
X155616Y111175D01*
X155461Y110000D01*
X155616Y108825D01*
X156007Y107881D01*
X154451Y106325D01*
X153367D01*
X153281Y106578D01*
X153236Y106825D01*
X153931Y107731D01*
X154384Y108825D01*
X154539Y110000D01*
X154384Y111175D01*
X153931Y112269D01*
X153209Y113209D01*
X152269Y113931D01*
X151326Y114322D01*
Y120000D01*
X151225Y120507D01*
X150937Y120937D01*
X146326Y125549D01*
Y134518D01*
X146412Y134554D01*
X146997Y135003D01*
X147446Y135588D01*
X147728Y136269D01*
X147777Y136641D01*
X148305Y136821D01*
X170148Y114977D01*
X169894Y114525D01*
X168825Y114384D01*
X167731Y113931D01*
X166791Y113209D01*
X166069Y112269D01*
X165616Y111175D01*
X165461Y110000D01*
X165616Y108825D01*
X166069Y107731D01*
X166791Y106791D01*
X167731Y106069D01*
X168825Y105616D01*
X170000Y105461D01*
X171175Y105616D01*
X172269Y106069D01*
X173209Y106791D01*
X173931Y107731D01*
X174384Y108825D01*
X174539Y110000D01*
X174384Y111175D01*
X173931Y112269D01*
X173236Y113174D01*
X173282Y113422D01*
X173367Y113674D01*
X176633D01*
X176718Y113422D01*
X176764Y113174D01*
X176069Y112269D01*
X175616Y111175D01*
X175461Y110000D01*
X175616Y108825D01*
X176069Y107731D01*
X176791Y106791D01*
X177731Y106069D01*
X178825Y105616D01*
X180000Y105461D01*
X181175Y105616D01*
X182269Y106069D01*
X183209Y106791D01*
X183931Y107731D01*
X184384Y108825D01*
X184539Y110000D01*
X184384Y111175D01*
X183931Y112269D01*
X183236Y113174D01*
X183282Y113422D01*
X183367Y113674D01*
X184451D01*
X186007Y112119D01*
X185616Y111175D01*
X185461Y110000D01*
X185616Y108825D01*
X186069Y107731D01*
X186791Y106791D01*
X187731Y106069D01*
X188825Y105616D01*
X190000Y105461D01*
X191175Y105616D01*
X192269Y106069D01*
X193209Y106791D01*
X193931Y107731D01*
X194384Y108825D01*
X194539Y110000D01*
X194384Y111175D01*
X193931Y112269D01*
X193209Y113209D01*
X192269Y113931D01*
X191175Y114384D01*
X190000Y114539D01*
X188825Y114384D01*
X187881Y113993D01*
X185937Y115937D01*
X185507Y116225D01*
X185000Y116325D01*
X172549D01*
X150179Y138695D01*
X150359Y139223D01*
X150731Y139272D01*
X151412Y139554D01*
X151997Y140003D01*
X152185Y140248D01*
X152815D01*
X153003Y140003D01*
X153588Y139554D01*
X154269Y139272D01*
X155000Y139176D01*
X155731Y139272D01*
X156412Y139554D01*
X156997Y140003D01*
X157446Y140588D01*
X157728Y141269D01*
X157824Y142000D01*
X157728Y142731D01*
X157446Y143412D01*
X156997Y143997D01*
X156412Y144446D01*
X155731Y144728D01*
X155000Y144824D01*
X154269Y144728D01*
X154182Y144692D01*
X153325Y145549D01*
Y168000D01*
X153225Y168507D01*
X152937Y168937D01*
X143993Y177881D01*
X144384Y178825D01*
X144539Y180000D01*
X144384Y181175D01*
X143931Y182269D01*
X143209Y183209D01*
X142269Y183931D01*
X141175Y184384D01*
X140000Y184539D01*
D02*
G37*
G36*
X185000Y156255D02*
X184329Y156166D01*
X183703Y155907D01*
X183166Y155495D01*
X182754Y154958D01*
X182495Y154332D01*
X182406Y153661D01*
X182495Y152990D01*
X182754Y152364D01*
X183166Y151827D01*
X183703Y151415D01*
X184329Y151156D01*
X185000Y151067D01*
X185671Y151156D01*
X186297Y151415D01*
X186834Y151827D01*
X187246Y152364D01*
X187505Y152990D01*
X187594Y153661D01*
X187505Y154332D01*
X187246Y154958D01*
X186834Y155495D01*
X186297Y155907D01*
X185671Y156166D01*
X185000Y156255D01*
D02*
G37*
G36*
X119500Y179500D02*
X115325D01*
X115421Y178773D01*
X115895Y177630D01*
X116648Y176648D01*
X117630Y175895D01*
X118773Y175421D01*
X119500Y175325D01*
Y179500D01*
D02*
G37*
G36*
X109500D02*
X105325D01*
X105421Y178773D01*
X105895Y177630D01*
X106648Y176648D01*
X107630Y175895D01*
X108773Y175421D01*
X109500Y175325D01*
Y179500D01*
D02*
G37*
G36*
X120000Y114539D02*
X118825Y114384D01*
X117731Y113931D01*
X116791Y113209D01*
X116069Y112269D01*
X115616Y111175D01*
X115461Y110000D01*
X115616Y108825D01*
X116069Y107731D01*
X116791Y106791D01*
X117731Y106069D01*
X118825Y105616D01*
X120000Y105461D01*
X121175Y105616D01*
X122269Y106069D01*
X123209Y106791D01*
X123931Y107731D01*
X124384Y108825D01*
X124539Y110000D01*
X124384Y111175D01*
X123931Y112269D01*
X123209Y113209D01*
X122269Y113931D01*
X121175Y114384D01*
X120000Y114539D01*
D02*
G37*
G36*
X110000D02*
X108825Y114384D01*
X107731Y113931D01*
X106791Y113209D01*
X106069Y112269D01*
X105616Y111175D01*
X105461Y110000D01*
X105616Y108825D01*
X106069Y107731D01*
X106791Y106791D01*
X107731Y106069D01*
X108825Y105616D01*
X110000Y105461D01*
X111175Y105616D01*
X112269Y106069D01*
X113209Y106791D01*
X113931Y107731D01*
X114384Y108825D01*
X114539Y110000D01*
X114384Y111175D01*
X113931Y112269D01*
X113209Y113209D01*
X112269Y113931D01*
X111175Y114384D01*
X110000Y114539D01*
D02*
G37*
G36*
X180000Y184539D02*
X178825Y184384D01*
X177731Y183931D01*
X176791Y183209D01*
X176069Y182269D01*
X175616Y181175D01*
X175461Y180000D01*
X175616Y178825D01*
X176007Y177881D01*
X166063Y167937D01*
X165775Y167507D01*
X165674Y167000D01*
Y137459D01*
X165174Y137360D01*
X164946Y137912D01*
X164497Y138497D01*
X163912Y138946D01*
X163826Y138982D01*
Y167500D01*
X163725Y168007D01*
X163437Y168437D01*
X153993Y177881D01*
X154384Y178825D01*
X154539Y180000D01*
X154384Y181175D01*
X153931Y182269D01*
X153209Y183209D01*
X152269Y183931D01*
X151175Y184384D01*
X150000Y184539D01*
X148825Y184384D01*
X147731Y183931D01*
X146791Y183209D01*
X146069Y182269D01*
X145616Y181175D01*
X145461Y180000D01*
X145616Y178825D01*
X146069Y177731D01*
X146791Y176791D01*
X147731Y176069D01*
X148825Y175616D01*
X150000Y175461D01*
X151175Y175616D01*
X152119Y176007D01*
X161174Y166951D01*
Y138982D01*
X161088Y138946D01*
X160503Y138497D01*
X160054Y137912D01*
X159772Y137231D01*
X159676Y136500D01*
X159772Y135769D01*
X160054Y135088D01*
X160503Y134503D01*
X161088Y134054D01*
X161769Y133772D01*
X162500Y133676D01*
X163231Y133772D01*
X163687Y133961D01*
X164169Y133726D01*
X164220Y133661D01*
X164272Y133269D01*
X164554Y132588D01*
X165003Y132003D01*
X165588Y131554D01*
X166269Y131272D01*
X167000Y131176D01*
X167731Y131272D01*
X168412Y131554D01*
X168997Y132003D01*
X169446Y132588D01*
X169728Y133269D01*
X169824Y134000D01*
X169728Y134731D01*
X169446Y135412D01*
X168997Y135997D01*
X168412Y136446D01*
X168325Y136482D01*
Y166451D01*
X177881Y176007D01*
X178825Y175616D01*
X180000Y175461D01*
X181175Y175616D01*
X182269Y176069D01*
X183209Y176791D01*
X183931Y177731D01*
X184384Y178825D01*
X184539Y180000D01*
X184384Y181175D01*
X183931Y182269D01*
X183209Y183209D01*
X182269Y183931D01*
X181175Y184384D01*
X180000Y184539D01*
D02*
G37*
G36*
X185000Y138933D02*
X184329Y138844D01*
X183703Y138585D01*
X183166Y138173D01*
X182754Y137636D01*
X182495Y137010D01*
X182406Y136339D01*
X182495Y135668D01*
X182754Y135042D01*
X183166Y134505D01*
X183703Y134093D01*
X184329Y133834D01*
X185000Y133745D01*
X185671Y133834D01*
X186297Y134093D01*
X186834Y134505D01*
X187246Y135042D01*
X187505Y135668D01*
X187594Y136339D01*
X187505Y137010D01*
X187246Y137636D01*
X186834Y138173D01*
X186297Y138585D01*
X185671Y138844D01*
X185000Y138933D01*
D02*
G37*
G36*
X119500Y184675D02*
X118773Y184579D01*
X117630Y184105D01*
X116648Y183352D01*
X115895Y182370D01*
X115421Y181227D01*
X115325Y180500D01*
X119500D01*
Y184675D01*
D02*
G37*
G36*
X109500D02*
X108773Y184579D01*
X107630Y184105D01*
X106648Y183352D01*
X105895Y182370D01*
X105421Y181227D01*
X105325Y180500D01*
X109500D01*
Y184675D01*
D02*
G37*
G36*
X120500D02*
Y180500D01*
X124675D01*
X124579Y181227D01*
X124105Y182370D01*
X123352Y183352D01*
X122370Y184105D01*
X121227Y184579D01*
X120500Y184675D01*
D02*
G37*
G36*
X110500D02*
Y180500D01*
X114675D01*
X114579Y181227D01*
X114105Y182370D01*
X113352Y183352D01*
X112370Y184105D01*
X111227Y184579D01*
X110500Y184675D01*
D02*
G37*
G36*
X190000Y184539D02*
X188825Y184384D01*
X187731Y183931D01*
X186791Y183209D01*
X186069Y182269D01*
X185616Y181175D01*
X185461Y180000D01*
X185616Y178825D01*
X186069Y177731D01*
X186791Y176791D01*
X187731Y176069D01*
X188825Y175616D01*
X190000Y175461D01*
X191175Y175616D01*
X192269Y176069D01*
X193209Y176791D01*
X193931Y177731D01*
X194384Y178825D01*
X194539Y180000D01*
X194384Y181175D01*
X193931Y182269D01*
X193209Y183209D01*
X192269Y183931D01*
X191175Y184384D01*
X190000Y184539D01*
D02*
G37*
G36*
X124675Y179500D02*
X120500D01*
Y175325D01*
X121227Y175421D01*
X122370Y175895D01*
X123352Y176648D01*
X124105Y177630D01*
X124579Y178773D01*
X124675Y179500D01*
D02*
G37*
G36*
X114675D02*
X110500D01*
Y175325D01*
X111227Y175421D01*
X112370Y175895D01*
X113352Y176648D01*
X114105Y177630D01*
X114579Y178773D01*
X114675Y179500D01*
D02*
G37*
G36*
X170000Y184539D02*
X168825Y184384D01*
X167731Y183931D01*
X166791Y183209D01*
X166069Y182269D01*
X165616Y181175D01*
X165461Y180000D01*
X165616Y178825D01*
X166069Y177731D01*
X166791Y176791D01*
X167731Y176069D01*
X168825Y175616D01*
X170000Y175461D01*
X171175Y175616D01*
X172269Y176069D01*
X173209Y176791D01*
X173931Y177731D01*
X174384Y178825D01*
X174539Y180000D01*
X174384Y181175D01*
X173931Y182269D01*
X173209Y183209D01*
X172269Y183931D01*
X171175Y184384D01*
X170000Y184539D01*
D02*
G37*
G36*
X160000D02*
X158825Y184384D01*
X157731Y183931D01*
X156791Y183209D01*
X156069Y182269D01*
X155616Y181175D01*
X155461Y180000D01*
X155616Y178825D01*
X156069Y177731D01*
X156791Y176791D01*
X157731Y176069D01*
X158825Y175616D01*
X160000Y175461D01*
X161175Y175616D01*
X162269Y176069D01*
X163209Y176791D01*
X163931Y177731D01*
X164384Y178825D01*
X164539Y180000D01*
X164384Y181175D01*
X163931Y182269D01*
X163209Y183209D01*
X162269Y183931D01*
X161175Y184384D01*
X160000Y184539D01*
D02*
G37*
%LPD*%
D18*
X137000Y140000D02*
X138540Y138460D01*
Y118540D02*
Y138460D01*
X130000Y110000D02*
X138540Y118540D01*
X145000Y125000D02*
Y137000D01*
Y125000D02*
X150000Y120000D01*
Y110000D02*
Y120000D01*
X130000Y140000D02*
X133500Y143500D01*
X138500D01*
X145000Y107500D02*
X147500Y105000D01*
X155000D01*
X160000Y110000D01*
X145000Y107500D02*
Y120300D01*
X138500Y143500D02*
X140340Y141660D01*
Y124960D02*
Y141660D01*
Y124960D02*
X145000Y120300D01*
X144000Y142000D02*
X145000D01*
X172000Y115000D01*
X185000D01*
X190000Y110000D01*
X152000Y145000D02*
X155000Y142000D01*
X152000Y145000D02*
Y168000D01*
X140000Y180000D02*
X152000Y168000D01*
X162500Y136500D02*
Y167500D01*
X150000Y180000D02*
X162500Y167500D01*
X150000Y142000D02*
Y160000D01*
X130000Y180000D02*
X150000Y160000D01*
X167000Y134000D02*
Y167000D01*
X180000Y180000D01*
D19*
X100000Y190000D02*
X205000D01*
Y100000D02*
Y190000D01*
X100000Y100000D02*
X205000D01*
X100000D02*
Y190000D01*
D20*
X185000Y136339D02*
D03*
Y153661D02*
D03*
D21*
X190000Y180000D02*
D03*
X180000D02*
D03*
X170000D02*
D03*
X160000D02*
D03*
X150000D02*
D03*
X140000D02*
D03*
X130000D02*
D03*
X120000D02*
D03*
X110000D02*
D03*
Y110000D02*
D03*
X120000D02*
D03*
X130000D02*
D03*
X140000D02*
D03*
X150000D02*
D03*
X160000D02*
D03*
X170000D02*
D03*
X180000D02*
D03*
X190000D02*
D03*
D22*
X155500Y152500D02*
D03*
X135120Y120710D02*
D03*
X183070Y170700D02*
D03*
X137000Y140000D02*
D03*
X145000Y137000D02*
D03*
X130000Y140000D02*
D03*
X144000Y142000D02*
D03*
X155000D02*
D03*
X162500Y136500D02*
D03*
X150000Y142000D02*
D03*
X167000Y134000D02*
D03*
D23*
X104832Y135266D02*
X105399Y134699D01*
Y133566D01*
X104832Y133000D01*
X104266D01*
X103700Y133566D01*
Y134699D01*
X103133Y135266D01*
X102567D01*
X102000Y134699D01*
Y133566D01*
X102567Y133000D01*
X102000Y138098D02*
Y136965D01*
X102567Y136399D01*
X103700D01*
X104266Y136965D01*
Y138098D01*
X103700Y138665D01*
X103133D01*
Y136399D01*
X100867Y139798D02*
X104266D01*
Y141497D01*
X103700Y142064D01*
X102567D01*
X102000Y141497D01*
Y139798D01*
X104832Y143763D02*
X104266D01*
Y143197D01*
Y144330D01*
Y143763D01*
X102567D01*
X102000Y144330D01*
Y151694D02*
Y149428D01*
X104266Y151694D01*
X104832D01*
X105399Y151128D01*
Y149995D01*
X104832Y149428D01*
Y152827D02*
X105399Y153393D01*
Y154526D01*
X104832Y155093D01*
X102567D01*
X102000Y154526D01*
Y153393D01*
X102567Y152827D01*
X104832D01*
M02*
